Antonio-900.ufo
<glyph name="exclam" format="1">
  <advance width="486"/>
  <unicode hex="0021"/>
  <outline>
    <contour>
      <point x="53" y="1763" type="line"/>
      <point x="435" y="1763" type="line"/>
      <point x="330" y="479" type="line"/>
      <point x="168" y="479" type="line"/>
    </contour>
    <contour>
      <point x="76" y="312" type="line"/>
      <point x="412" y="312" type="line"/>
      <point x="412" y="0" type="line"/>
      <point x="76" y="0" type="line"/>
    </contour>
  </outline>
</glyph>
<glyph name="quotedbl" format="1">
  <advance width="1344"/>
  <unicode hex="0022"/>
  <outline>
    <contour>
      <point x="632" y="1763" type="line"/>
      <point x="986" y="1763" type="line"/>
      <point x="1026" y="1259" type="line"/>
      <point x="842" y="1259" type="line"/>
    </contour>
    <contour>
      <point x="188" y="1763" type="line"/>
      <point x="545" y="1763" type="line"/>
      <point x="585" y="1259" type="line"/>
      <point x="401" y="1259" type="line"/>
    </contour>
  </outline>
</glyph>
<glyph name="numbersign" format="1">
  <advance width="2156"/>
  <unicode hex="0023"/>
  <outline>
    <contour>
      <point x="1401" y="1764" type="line"/>
      <point x="1776" y="1764" type="line"/>
      <point x="1607" y="1272" type="line"/>
      <point x="1676" y="1272" type="line"/>
      <point x="1676" y="935" type="line"/>
      <point x="1531" y="935" type="line"/>
      <point x="1468" y="825" type="line"/>
      <point x="1547" y="825" type="line"/>
      <point x="1547" y="485" type="line"/>
      <point x="1385" y="485" type="line"/>
      <point x="1217" y="0" type="line"/>
      <point x="845" y="0" type="line"/>
      <point x="1014" y="485" type="line"/>
      <point x="786" y="485" type="line"/>
      <point x="617" y="0" type="line"/>
      <point x="245" y="0" type="line"/>
      <point x="412" y="485" type="line"/>
      <point x="344" y="485" type="line"/>
      <point x="344" y="825" type="line"/>
      <point x="492" y="825" type="line"/>
      <point x="555" y="935" type="line"/>
      <point x="473" y="935" type="line"/>
      <point x="473" y="1272" type="line"/>
      <point x="631" y="1272" type="line"/>
      <point x="801" y="1764" type="line"/>
      <point x="1176" y="1764" type="line"/>
      <point x="1005" y="1272" type="line"/>
      <point x="1235" y="1272" type="line"/>
    </contour>
    <contour>
      <point x="1093" y="824" type="line"/>
      <point x="1158" y="934" type="line"/>
      <point x="929" y="934" type="line"/>
      <point x="868" y="824" type="line"/>
    </contour>
  </outline>
</glyph>
<glyph name="dollar" format="1">
  <advance width="1098"/>
  <unicode hex="0024"/>
  <outline>
    <contour>
      <point x="487" y="91" type="line"/>
      <point x="699" y="91" type="line"/>
      <point x="699" y="-168" type="line"/>
      <point x="487" y="-168" type="line"/>
    </contour>
    <contour>
      <point x="490" y="1760" type="line"/>
      <point x="702" y="1760" type="line"/>
      <point x="702" y="1542" type="line"/>
      <point x="490" y="1542" type="line"/>
    </contour>
    <component base="s" yOffset="46"/>
  </outline>
</glyph>
<glyph name="percent" format="1">
  <advance width="2271"/>
  <unicode hex="0025"/>
  <outline>
    <contour>
      <point x="1321" y="1763" type="line"/>
      <point x="1591" y="1763" type="line"/>
      <point x="963" y="0" type="line"/>
      <point x="682" y="0" type="line"/>
    </contour>
    <contour>
      <point x="538" y="1427" type="line"/>
      <point x="538" y="1491"/>
      <point x="526" y="1540"/>
      <point x="452" y="1540" type="curve" smooth="yes"/>
      <point x="378" y="1540"/>
      <point x="366" y="1490"/>
      <point x="366" y="1427" type="curve" smooth="yes"/>
      <point x="366" y="943" type="line" smooth="yes"/>
      <point x="366" y="879"/>
      <point x="385" y="820"/>
      <point x="452" y="820" type="curve" smooth="yes"/>
      <point x="519" y="820"/>
      <point x="538" y="879"/>
      <point x="538" y="943" type="curve" smooth="yes"/>
    </contour>
    <contour>
      <point x="58" y="1361" type="line"/>
      <point x="58" y="1624"/>
      <point x="183" y="1779"/>
      <point x="452" y="1779" type="curve" smooth="yes"/>
      <point x="719" y="1779"/>
      <point x="844" y="1624"/>
      <point x="844" y="1361" type="curve" smooth="yes"/>
      <point x="844" y="997" type="line" smooth="yes"/>
      <point x="844" y="755"/>
      <point x="704" y="578"/>
      <point x="452" y="578" type="curve" smooth="yes"/>
      <point x="201" y="578"/>
      <point x="58" y="755"/>
      <point x="58" y="997" type="curve" smooth="yes"/>
    </contour>
    <contour>
      <point x="1451" y="760" type="line"/>
      <point x="1451" y="1023"/>
      <point x="1576" y="1178"/>
      <point x="1843" y="1178" type="curve" smooth="yes"/>
      <point x="2115" y="1178"/>
      <point x="2240" y="1023"/>
      <point x="2240" y="760" type="curve" smooth="yes"/>
      <point x="2240" y="396" type="line" smooth="yes"/>
      <point x="2240" y="154"/>
      <point x="2097" y="-23"/>
      <point x="1843" y="-23" type="curve" smooth="yes"/>
      <point x="1594" y="-23"/>
      <point x="1451" y="154"/>
      <point x="1451" y="396" type="curve" smooth="yes"/>
    </contour>
    <contour>
      <point x="1932" y="826" type="line"/>
      <point x="1932" y="890"/>
      <point x="1917" y="939"/>
      <point x="1843" y="939" type="curve" smooth="yes"/>
      <point x="1769" y="939"/>
      <point x="1757" y="889"/>
      <point x="1757" y="826" type="curve" smooth="yes"/>
      <point x="1757" y="342" type="line" smooth="yes"/>
      <point x="1757" y="278"/>
      <point x="1776" y="219"/>
      <point x="1843" y="219" type="curve" smooth="yes"/>
      <point x="1912" y="219"/>
      <point x="1932" y="278"/>
      <point x="1932" y="342" type="curve" smooth="yes"/>
    </contour>
  </outline>
</glyph>
<glyph name="ampersand" format="1">
  <advance width="1240"/>
  <unicode hex="0026"/>
  <outline>
    <contour>
      <point x="631" y="1779" type="curve" smooth="yes"/>
      <point x="855" y="1779"/>
      <point x="1017" y="1664"/>
      <point x="1017" y="1440" type="curve" smooth="yes"/>
      <point x="1017" y="1267"/>
      <point x="912" y="1131"/>
      <point x="773" y="970" type="curve"/>
      <point x="893" y="658"/>
      <point x="712" y="1090"/>
      <point x="844" y="769" type="curve"/>
      <point x="910" y="850"/>
      <point x="983" y="938"/>
      <point x="1070" y="1028" type="curve"/>
      <point x="1223" y="768" type="line"/>
      <point x="1130" y="692"/>
      <point x="1063" y="569"/>
      <point x="980" y="451" type="curve"/>
      <point x="1184" y="-29"/>
      <point x="1055" y="219"/>
      <point x="1148" y="0" type="curve"/>
      <point x="768" y="0" type="line"/>
      <point x="732" y="87"/>
      <point x="834" y="-118"/>
      <point x="759" y="50" type="curve"/>
      <point x="667" y="9"/>
      <point x="542" y="-20"/>
      <point x="436" y="-20" type="curve" smooth="yes"/>
      <point x="177" y="-20"/>
      <point x="81" y="173"/>
      <point x="81" y="460" type="curve" smooth="yes"/>
      <point x="81" y="559"/>
      <point x="231" y="747"/>
      <point x="387" y="916" type="curve"/>
      <point x="307" y="1128"/>
      <point x="248" y="1321"/>
      <point x="248" y="1425" type="curve" smooth="yes"/>
      <point x="248" y="1652"/>
      <point x="404" y="1779"/>
    </contour>
    <contour>
      <point x="633" y="330" type="curve"/>
      <point x="486" y="660"/>
      <point x="666" y="203"/>
      <point x="510" y="578" type="curve"/>
      <point x="440" y="502"/>
      <point x="376" y="461"/>
      <point x="380" y="439" type="curve"/>
      <point x="382" y="340"/>
      <point x="446" y="311"/>
      <point x="515" y="311" type="curve" smooth="yes"/>
      <point x="530" y="311"/>
      <point x="591" y="318"/>
    </contour>
    <contour>
      <point x="662" y="1288" type="curve"/>
      <point x="737" y="1374"/>
      <point x="788" y="1411"/>
      <point x="788" y="1442" type="curve" smooth="yes"/>
      <point x="788" y="1533"/>
      <point x="757" y="1564"/>
      <point x="705" y="1564" type="curve" smooth="yes"/>
      <point x="659" y="1564"/>
      <point x="607" y="1533"/>
      <point x="607" y="1459" type="curve" smooth="yes"/>
      <point x="607" y="1432"/>
      <point x="624" y="1394"/>
    </contour>
  </outline>
</glyph>
<glyph name="quotesingle" format="1">
  <advance width="443"/>
  <unicode hex="0027"/>
  <outline>
    <contour>
      <point x="76" y="1761" type="line"/>
      <point x="396" y="1761" type="line"/>
      <point x="331" y="1125" type="line"/>
      <point x="136" y="1125" type="line"/>
    </contour>
  </outline>
</glyph>
<glyph name="parenleft" format="1">
  <advance width="737"/>
  <unicode hex="0028"/>
  <outline>
    <contour>
      <point x="119" y="1418" type="line"/>
      <point x="119" y="1781"/>
      <point x="283" y="1905"/>
      <point x="646" y="1905" type="curve"/>
      <point x="646" y="1615" type="line"/>
      <point x="526" y="1615"/>
      <point x="507" y="1513"/>
      <point x="507" y="1422" type="curve" smooth="yes"/>
      <point x="507" y="559" type="line" smooth="yes"/>
      <point x="507" y="466"/>
      <point x="526" y="366"/>
      <point x="646" y="366" type="curve"/>
      <point x="646" y="76" type="line"/>
      <point x="283" y="76"/>
      <point x="119" y="200"/>
      <point x="119" y="563" type="curve" smooth="yes"/>
    </contour>
  </outline>
</glyph>
<glyph name="parenright" format="1">
  <advance width="737"/>
  <unicode hex="0029"/>
  <outline>
    <contour>
      <point x="618" y="1418" type="curve" smooth="yes"/>
      <point x="618" y="563" type="line" smooth="yes"/>
      <point x="618" y="200"/>
      <point x="457" y="76"/>
      <point x="94" y="76" type="curve"/>
      <point x="94" y="366" type="line"/>
      <point x="214" y="366"/>
      <point x="233" y="466"/>
      <point x="233" y="559" type="curve" smooth="yes"/>
      <point x="233" y="1422" type="line" smooth="yes"/>
      <point x="233" y="1513"/>
      <point x="214" y="1615"/>
      <point x="94" y="1615" type="curve"/>
      <point x="94" y="1905" type="line"/>
      <point x="457" y="1905"/>
      <point x="618" y="1781"/>
    </contour>
  </outline>
</glyph>
<glyph name="asterisk" format="1">
  <advance width="1132"/>
  <unicode hex="002A"/>
  <outline>
    <contour>
      <point x="444" y="1499" type="line"/>
      <point x="688" y="1499" type="line"/>
      <point x="652" y="1211" type="line"/>
      <point x="884" y="1386" type="line"/>
      <point x="1007" y="1172" type="line"/>
      <point x="729" y="1067" type="line"/>
      <point x="1007" y="952" type="line"/>
      <point x="884" y="743" type="line"/>
      <point x="652" y="924" type="line"/>
      <point x="688" y="625" type="line"/>
      <point x="444" y="625" type="line"/>
      <point x="489" y="932" type="line"/>
      <point x="250" y="738" type="line"/>
      <point x="125" y="950" type="line"/>
      <point x="405" y="1067" type="line"/>
      <point x="125" y="1174" type="line"/>
      <point x="248" y="1388" type="line"/>
      <point x="488" y="1205" type="line"/>
    </contour>
  </outline>
</glyph>
<glyph name="plus" format="1">
  <advance width="1064"/>
  <unicode hex="002B"/>
  <outline>
    <contour>
      <point x="408" y="912" type="line"/>
      <point x="656" y="912" type="line"/>
      <point x="656" y="711" type="line"/>
      <point x="859" y="711" type="line"/>
      <point x="859" y="460" type="line"/>
      <point x="656" y="460" type="line"/>
      <point x="656" y="261" type="line"/>
      <point x="408" y="261" type="line"/>
      <point x="408" y="460" type="line"/>
      <point x="202" y="460" type="line"/>
      <point x="202" y="711" type="line"/>
      <point x="408" y="711" type="line"/>
    </contour>
  </outline>
</glyph>
<glyph name="comma" format="1">
  <advance width="540"/>
  <unicode hex="002C"/>
  <outline>
    <contour>
      <point x="113" y="334" type="line"/>
      <point x="461" y="334" type="line"/>
      <point x="461" y="9" type="line"/>
      <point x="357" y="-326" type="line"/>
      <point x="176" y="-326" type="line"/>
      <point x="240" y="0" type="line"/>
      <point x="113" y="0" type="line"/>
    </contour>
  </outline>
</glyph>
<glyph name="hyphen" format="1">
  <advance width="696"/>
  <unicode hex="002D"/>
  <outline>
    <contour>
      <point x="91" y="692" type="line"/>
      <point x="621" y="692" type="line"/>
      <point x="621" y="457" type="line"/>
      <point x="91" y="457" type="line"/>
    </contour>
  </outline>
</glyph>
<glyph name="period" format="1">
  <advance width="532"/>
  <unicode hex="002E"/>
  <outline>
    <contour>
      <point x="105" y="342" type="line"/>
      <point x="430" y="342" type="line"/>
      <point x="430" y="0" type="line"/>
      <point x="105" y="0" type="line"/>
    </contour>
  </outline>
</glyph>
<glyph name="slash" format="1">
  <advance width="1018"/>
  <unicode hex="002F"/>
  <outline>
    <contour>
      <point x="553" y="1771" type="line"/>
      <point x="892" y="1771" type="line"/>
      <point x="488" y="0" type="line"/>
      <point x="150" y="0" type="line"/>
    </contour>
  </outline>
</glyph>
<glyph name="zero" format="1">
  <advance width="1322"/>
  <unicode hex="0030"/>
  <outline>
    <contour>
      <point x="61" y="1316" type="line"/>
      <point x="61" y="1619"/>
      <point x="357" y="1781"/>
      <point x="639" y="1781" type="curve" smooth="yes"/>
      <point x="921" y="1781"/>
      <point x="1237" y="1619"/>
      <point x="1237" y="1316" type="curve" smooth="yes"/>
      <point x="1237" y="475" type="line" smooth="yes"/>
      <point x="1237" y="162"/>
      <point x="927" y="-21"/>
      <point x="639" y="-21" type="curve" smooth="yes"/>
      <point x="351" y="-21"/>
      <point x="61" y="162"/>
      <point x="61" y="475" type="curve" smooth="yes"/>
    </contour>
    <contour>
      <point x="825" y="1327" type="line"/>
      <point x="825" y="1378"/>
      <point x="710" y="1440"/>
      <point x="640" y="1440" type="curve" smooth="yes"/>
      <point x="572" y="1440"/>
      <point x="470" y="1389"/>
      <point x="470" y="1328" type="curve" smooth="yes"/>
      <point x="470" y="470" type="line" smooth="yes"/>
      <point x="470" y="395"/>
      <point x="558" y="322"/>
      <point x="640" y="322" type="curve" smooth="yes"/>
      <point x="717" y="322"/>
      <point x="825" y="405"/>
      <point x="825" y="470" type="curve" smooth="yes"/>
    </contour>
  </outline>
</glyph>
<glyph name="one" format="1">
  <advance width="320"/>
  <unicode hex="0031"/>
  <outline>
    <contour>
      <point x="48" y="1761" type="curve"/>
      <point x="380" y="1761" type="line"/>
      <point x="380" y="0" type="line"/>
      <point x="-12" y="0" type="line"/>
      <point x="-12" y="1318" type="line"/>
      <point x="-60" y="1261"/>
      <point x="-56" y="1272"/>
      <point x="-130" y="1272" type="curve"/>
      <point x="-130" y="1541" type="line"/>
      <point x="-24" y="1556"/>
      <point x="-8" y="1629"/>
    </contour>
  </outline>
</glyph>
<glyph name="three" format="1">
  <advance width="1172"/>
  <unicode hex="0033"/>
  <outline>
    <contour>
      <point x="97" y="1290" type="line"/>
      <point x="97" y="1618"/>
      <point x="228" y="1780"/>
      <point x="566" y="1780" type="curve" smooth="yes"/>
      <point x="885" y="1780"/>
      <point x="1056" y="1627"/>
      <point x="1056" y="1310" type="curve" smooth="yes"/>
      <point x="1056" y="1142"/>
      <point x="993" y="1013"/>
      <point x="869" y="969" type="curve"/>
      <point x="1022" y="894"/>
      <point x="1057" y="780"/>
      <point x="1057" y="539" type="curve" smooth="yes"/>
      <point x="1057" y="184"/>
      <point x="916" y="-20"/>
      <point x="549" y="-20" type="curve" smooth="yes"/>
      <point x="214" y="-20"/>
      <point x="99" y="164"/>
      <point x="99" y="494" type="curve" smooth="yes"/>
      <point x="99" y="663" type="line"/>
      <point x="462" y="663" type="line"/>
      <point x="462" y="459" type="line" smooth="yes"/>
      <point x="462" y="396"/>
      <point x="472" y="320"/>
      <point x="566" y="320" type="curve" smooth="yes"/>
      <point x="654" y="320"/>
      <point x="678" y="421"/>
      <point x="678" y="538" type="curve" smooth="yes"/>
      <point x="678" y="696"/>
      <point x="662" y="802"/>
      <point x="540" y="802" type="curve" smooth="yes"/>
      <point x="410" y="802" type="line"/>
      <point x="410" y="1084" type="line"/>
      <point x="538" y="1084" type="line" smooth="yes"/>
      <point x="654" y="1084"/>
      <point x="682" y="1212"/>
      <point x="682" y="1310" type="curve" smooth="yes"/>
      <point x="682" y="1393"/>
      <point x="646" y="1439"/>
      <point x="582" y="1439" type="curve" smooth="yes"/>
      <point x="477" y="1439"/>
      <point x="478" y="1368"/>
      <point x="478" y="1310" type="curve" smooth="yes"/>
      <point x="478" y="1235" type="line"/>
      <point x="97" y="1235" type="line"/>
    </contour>
  </outline>
</glyph>
<glyph name="four" format="1">
  <advance width="1145"/>
  <unicode hex="0034"/>
  <outline>
    <contour>
      <point x="487" y="1763" type="line"/>
      <point x="919" y="1763" type="line"/>
      <point x="919" y="586" type="line"/>
      <point x="1037" y="586" type="line"/>
      <point x="1037" y="266" type="line"/>
      <point x="919" y="266" type="line"/>
      <point x="919" y="-1" type="line"/>
      <point x="578" y="-1" type="line"/>
      <point x="578" y="266" type="line"/>
      <point x="108" y="266" type="line"/>
      <point x="108" y="567" type="line"/>
    </contour>
    <contour>
      <point x="578" y="586" type="line"/>
      <point x="578" y="1361" type="line"/>
      <point x="389" y="586" type="line"/>
    </contour>
  </outline>
</glyph>
<glyph name="five" format="1">
  <advance width="1145"/>
  <unicode hex="0035"/>
  <outline>
    <contour>
      <point x="77" y="1760" type="line"/>
      <point x="924" y="1760" type="line"/>
      <point x="924" y="1412" type="line"/>
      <point x="440" y="1412" type="line"/>
      <point x="440" y="1163" type="line"/>
      <point x="471" y="1227"/>
      <point x="564" y="1272"/>
      <point x="665" y="1272" type="curve" smooth="yes"/>
      <point x="953" y="1272"/>
      <point x="981" y="960"/>
      <point x="981" y="668" type="curve" smooth="yes"/>
      <point x="981" y="261"/>
      <point x="951" y="-20"/>
      <point x="513" y="-20" type="curve" smooth="yes"/>
      <point x="234" y="-20"/>
      <point x="80" y="102"/>
      <point x="80" y="397" type="curve" smooth="yes"/>
      <point x="80" y="672" type="line"/>
      <point x="433" y="672" type="line"/>
      <point x="433" y="483" type="line" smooth="yes"/>
      <point x="433" y="391"/>
      <point x="428" y="319"/>
      <point x="513" y="319" type="curve" smooth="yes"/>
      <point x="589" y="319"/>
      <point x="599" y="378"/>
      <point x="599" y="494" type="curve" smooth="yes"/>
      <point x="599" y="794" type="line" smooth="yes"/>
      <point x="599" y="871"/>
      <point x="598" y="953"/>
      <point x="515" y="953" type="curve" smooth="yes"/>
      <point x="448" y="953"/>
      <point x="429" y="906"/>
      <point x="429" y="814" type="curve"/>
      <point x="77" y="812" type="line"/>
    </contour>
  </outline>
</glyph>
<glyph name="six" format="1">
  <advance width="1145"/>
  <unicode hex="0036"/>
  <outline>
    <contour>
      <point x="468" y="457" type="line"/>
      <point x="468" y="377"/>
      <point x="508" y="322"/>
      <point x="587" y="322" type="curve" smooth="yes"/>
      <point x="643" y="322"/>
      <point x="694" y="318"/>
      <point x="694" y="400" type="curve" smooth="yes"/>
      <point x="694" y="639" type="line" smooth="yes"/>
      <point x="694" y="708"/>
      <point x="632" y="749"/>
      <point x="594" y="749" type="curve" smooth="yes"/>
      <point x="508" y="749"/>
      <point x="492" y="708"/>
      <point x="468" y="561" type="curve"/>
    </contour>
    <contour>
      <point x="1095" y="435" type="line"/>
      <point x="1095" y="70"/>
      <point x="920" y="-21"/>
      <point x="577" y="-21" type="curve" smooth="yes"/>
      <point x="177" y="-21"/>
      <point x="58" y="211"/>
      <point x="58" y="593" type="curve" smooth="yes"/>
      <point x="58" y="1282" type="line" smooth="yes"/>
      <point x="58" y="1732"/>
      <point x="322" y="1785"/>
      <point x="606" y="1785" type="curve" smooth="yes"/>
      <point x="870" y="1785"/>
      <point x="1033" y="1674"/>
      <point x="1039" y="1350" type="curve" smooth="yes"/>
      <point x="1039" y="1243" type="line"/>
      <point x="657" y="1243" type="line"/>
      <point x="657" y="1245" type="line" smooth="yes"/>
      <point x="657" y="1292"/>
      <point x="679" y="1436"/>
      <point x="599" y="1436" type="curve" smooth="yes"/>
      <point x="523" y="1436"/>
      <point x="468" y="1437"/>
      <point x="468" y="1314" type="curve" smooth="yes"/>
      <point x="468" y="971" type="line"/>
      <point x="517" y="1074"/>
      <point x="618" y="1114"/>
      <point x="737" y="1117" type="curve" smooth="yes"/>
      <point x="969" y="1129"/>
      <point x="1095" y="952"/>
      <point x="1095" y="610" type="curve" smooth="yes"/>
    </contour>
  </outline>
</glyph>
<glyph name="seven" format="1">
  <advance width="1145"/>
  <unicode hex="0037"/>
  <outline>
    <contour>
      <point x="144" y="1761" type="line"/>
      <point x="1071" y="1761" type="line"/>
      <point x="1071" y="1476" type="line"/>
      <point x="1043" y="1237"/>
      <point x="931" y="1076"/>
      <point x="860" y="912" type="curve"/>
      <point x="754" y="646"/>
      <point x="665" y="356"/>
      <point x="644" y="1" type="curve"/>
      <point x="210" y="1" type="line"/>
      <point x="243" y="493"/>
      <point x="427" y="865"/>
      <point x="585" y="1243" type="curve"/>
      <point x="610" y="1288"/>
      <point x="625" y="1346"/>
      <point x="642" y="1404" type="curve"/>
      <point x="144" y="1404" type="line"/>
    </contour>
  </outline>
</glyph>
<glyph name="eight" format="1">
  <advance width="1145"/>
  <unicode hex="0038"/>
  <outline>
    <contour>
      <point x="90" y="1335" type="curve" smooth="yes"/>
      <point x="90" y="1646"/>
      <point x="262" y="1783"/>
      <point x="571" y="1783" type="curve" smooth="yes"/>
      <point x="893" y="1783"/>
      <point x="1050" y="1660"/>
      <point x="1050" y="1335" type="curve" smooth="yes"/>
      <point x="1050" y="1197"/>
      <point x="992" y="1056"/>
      <point x="900" y="991" type="curve"/>
      <point x="985" y="930"/>
      <point x="1050" y="832"/>
      <point x="1050" y="683" type="curve" smooth="yes"/>
      <point x="1050" y="460" type="line" smooth="yes"/>
      <point x="1041" y="146"/>
      <point x="872" y="-23"/>
      <point x="573" y="-23" type="curve" smooth="yes"/>
      <point x="275" y="-23"/>
      <point x="97" y="147"/>
      <point x="93" y="459" type="curve" smooth="yes"/>
      <point x="90" y="480"/>
      <point x="92" y="662"/>
      <point x="92" y="683" type="curve" smooth="yes"/>
      <point x="96" y="835"/>
      <point x="145" y="932"/>
      <point x="235" y="997" type="curve"/>
      <point x="142" y="1061"/>
      <point x="90" y="1199"/>
    </contour>
    <contour>
      <point x="658" y="744" type="line"/>
      <point x="658" y="778"/>
      <point x="642" y="842"/>
      <point x="574" y="842" type="curve" smooth="yes"/>
      <point x="508" y="842"/>
      <point x="482" y="788"/>
      <point x="482" y="747" type="curve" smooth="yes"/>
      <point x="482" y="444" type="line" smooth="yes"/>
      <point x="485" y="375"/>
      <point x="499" y="316"/>
      <point x="574" y="316" type="curve" smooth="yes"/>
      <point x="642" y="316"/>
      <point x="658" y="386"/>
      <point x="658" y="446" type="curve" smooth="yes"/>
    </contour>
    <contour>
      <point x="645" y="1279" type="curve" smooth="yes"/>
      <point x="645" y="1448"/>
      <point x="641" y="1491"/>
      <point x="572" y="1491" type="curve" smooth="yes"/>
      <point x="503" y="1491"/>
      <point x="498" y="1442"/>
      <point x="498" y="1281" type="curve" smooth="yes"/>
      <point x="498" y="1127"/>
      <point x="515" y="1085"/>
      <point x="572" y="1085" type="curve" smooth="yes"/>
      <point x="631" y="1085"/>
      <point x="645" y="1128"/>
    </contour>
  </outline>
</glyph>
<glyph name="nine" format="1">
  <advance width="1145"/>
  <unicode hex="0039"/>
  <outline>
    <contour>
      <point x="-5" y="1242" type="line"/>
      <point x="-5" y="1607"/>
      <point x="143" y="1785"/>
      <point x="516" y="1785" type="curve" smooth="yes"/>
      <point x="916" y="1785"/>
      <point x="963" y="1586"/>
      <point x="963" y="1171" type="curve" smooth="yes"/>
      <point x="963" y="542" type="line" smooth="yes"/>
      <point x="963" y="92"/>
      <point x="753" y="-18"/>
      <point x="469" y="-18" type="curve" smooth="yes"/>
      <point x="247" y="-18"/>
      <point x="30" y="90"/>
      <point x="24" y="411" type="curve" smooth="yes"/>
      <point x="24" y="533" type="line"/>
      <point x="415" y="533" type="line"/>
      <point x="415" y="528" type="line" smooth="yes"/>
      <point x="418" y="436"/>
      <point x="426" y="322"/>
      <point x="494" y="322" type="curve" smooth="yes"/>
      <point x="564" y="322"/>
      <point x="561" y="378"/>
      <point x="561" y="474" type="curve" smooth="yes"/>
      <point x="561" y="673" type="line"/>
      <point x="530" y="663"/>
      <point x="490" y="668"/>
      <point x="398" y="668" type="curve" smooth="yes"/>
      <point x="145" y="668"/>
      <point x="-5" y="866"/>
      <point x="-5" y="1166" type="curve" smooth="yes"/>
    </contour>
    <contour>
      <point x="561" y="1316" type="line"/>
      <point x="561" y="1378"/>
      <point x="537" y="1442"/>
      <point x="488" y="1442" type="curve" smooth="yes"/>
      <point x="432" y="1442"/>
      <point x="407" y="1353"/>
      <point x="407" y="1289" type="curve" smooth="yes"/>
      <point x="407" y="1080" type="line" smooth="yes"/>
      <point x="407" y="1032"/>
      <point x="451" y="1000"/>
      <point x="498" y="1000" type="curve" smooth="yes"/>
      <point x="560" y="1000"/>
      <point x="534" y="993"/>
      <point x="561" y="1164" type="curve"/>
    </contour>
  </outline>
</glyph>
<glyph name="colon" format="1">
  <advance width="687"/>
  <unicode hex="003A"/>
  <outline>
    <contour>
      <point x="144" y="1307" type="line"/>
      <point x="543" y="1307" type="line"/>
      <point x="543" y="1020" type="line"/>
      <point x="144" y="1020" type="line"/>
    </contour>
    <contour>
      <point x="144" y="557" type="line"/>
      <point x="543" y="557" type="line"/>
      <point x="543" y="270" type="line"/>
      <point x="144" y="270" type="line"/>
    </contour>
  </outline>
</glyph>
<glyph name="semicolon" format="1">
  <advance width="561"/>
  <unicode hex="003B"/>
  <outline>
    <contour>
      <point x="-8" y="531" type="line"/>
      <point x="449" y="531" type="line"/>
      <point x="449" y="210" type="line"/>
      <point x="350" y="-115" type="line"/>
      <point x="172" y="-115" type="line"/>
      <point x="234" y="201" type="line"/>
      <point x="-8" y="201" type="line"/>
    </contour>
    <contour>
      <point x="-26" y="1282" type="line"/>
      <point x="433" y="1282" type="line"/>
      <point x="433" y="924" type="line"/>
      <point x="-26" y="924" type="line"/>
    </contour>
  </outline>
</glyph>
<glyph name="less" format="1">
  <advance width="730"/>
  <unicode hex="003C"/>
  <outline>
    <contour>
      <point x="67" y="977" type="line"/>
      <point x="634" y="1310" type="line"/>
      <point x="634" y="925" type="line"/>
      <point x="312" y="749" type="line"/>
      <point x="634" y="574" type="line"/>
      <point x="634" y="186" type="line"/>
      <point x="67" y="523" type="line"/>
    </contour>
  </outline>
</glyph>
<glyph name="equal" format="1">
  <advance width="722"/>
  <unicode hex="003D"/>
  <outline>
    <contour>
      <point x="144" y="744" type="line"/>
      <point x="518" y="744" type="line"/>
      <point x="518" y="495" type="line"/>
      <point x="144" y="495" type="line"/>
    </contour>
    <contour>
      <point x="144" y="1128" type="line"/>
      <point x="518" y="1128" type="line"/>
      <point x="518" y="892" type="line"/>
      <point x="144" y="892" type="line"/>
    </contour>
  </outline>
</glyph>
<glyph name="greater" format="1">
  <advance width="730"/>
  <unicode hex="003E"/>
  <outline>
    <contour>
      <point x="96" y="922" type="line"/>
      <point x="96" y="1310" type="line"/>
      <point x="666" y="980" type="line"/>
      <point x="666" y="523" type="line"/>
      <point x="96" y="186" type="line"/>
      <point x="96" y="571" type="line"/>
      <point x="418" y="749" type="line"/>
    </contour>
  </outline>
</glyph>
<glyph name="question" format="1">
  <advance width="983"/>
  <unicode hex="003F"/>
  <outline>
    <contour>
      <point x="42" y="1388" type="line"/>
      <point x="42" y="1675"/>
      <point x="232" y="1779"/>
      <point x="503" y="1779" type="curve" smooth="yes"/>
      <point x="873" y="1779"/>
      <point x="975" y="1614"/>
      <point x="975" y="1251" type="curve" smooth="yes"/>
      <point x="975" y="905"/>
      <point x="937" y="718"/>
      <point x="587" y="616" type="curve"/>
      <point x="587" y="494" type="line"/>
      <point x="237" y="494" type="line"/>
      <point x="237" y="810" type="line"/>
      <point x="560" y="865"/>
      <point x="585" y="957"/>
      <point x="585" y="1300" type="curve" smooth="yes"/>
      <point x="585" y="1371"/>
      <point x="587" y="1439"/>
      <point x="507" y="1439" type="curve" smooth="yes"/>
      <point x="420" y="1439"/>
      <point x="419" y="1368"/>
      <point x="419" y="1296" type="curve" smooth="yes"/>
      <point x="419" y="1160" type="line"/>
      <point x="42" y="1160" type="line"/>
    </contour>
    <contour>
      <point x="249" y="299" type="line"/>
      <point x="591" y="299" type="line"/>
      <point x="591" y="1" type="line"/>
      <point x="249" y="1" type="line"/>
    </contour>
  </outline>
</glyph>
<glyph name="A" format="1">
  <advance width="967"/>
  <unicode hex="0041"/>
  <outline>
    <contour>
      <point x="202" y="1760" type="line"/>
      <point x="766" y="1760" type="line"/>
      <point x="985" y="0" type="line"/>
      <point x="625" y="0" type="line"/>
      <point x="599" y="270" type="line"/>
      <point x="385" y="270" type="line"/>
      <point x="363" y="0" type="line"/>
      <point x="-18" y="0" type="line"/>
    </contour>
    <contour>
      <point x="417" y="579" type="line"/>
      <point x="567" y="579" type="line"/>
      <point x="491" y="1371" type="line"/>
      <point x="485" y="1371" type="line"/>
    </contour>
  </outline>
</glyph>
<glyph name="B" format="1">
  <advance width="1119"/>
  <unicode hex="0042"/>
  <outline>
    <contour>
      <point x="108" y="1760" type="line"/>
      <point x="615" y="1760" type="line" smooth="yes"/>
      <point x="872" y="1760"/>
      <point x="1014" y="1644"/>
      <point x="1013" y="1358" type="curve"/>
      <point x="1013" y="1272" type="line" smooth="yes"/>
      <point x="1013" y="1115"/>
      <point x="942" y="999"/>
      <point x="817" y="971" type="curve"/>
      <point x="981" y="935"/>
      <point x="1057" y="784"/>
      <point x="1057" y="572" type="curve" smooth="yes"/>
      <point x="1057" y="511" type="line"/>
      <point x="1059" y="140"/>
      <point x="891" y="0"/>
      <point x="587" y="0" type="curve" smooth="yes"/>
      <point x="108" y="0" type="line"/>
    </contour>
    <contour>
      <point x="663" y="686" type="line"/>
      <point x="663" y="765"/>
      <point x="639" y="809"/>
      <point x="561" y="809" type="curve" smooth="yes"/>
      <point x="498" y="809" type="line"/>
      <point x="498" y="290" type="line"/>
      <point x="529" y="290" type="line" smooth="yes"/>
      <point x="613" y="290"/>
      <point x="663" y="328"/>
      <point x="663" y="382" type="curve" smooth="yes"/>
    </contour>
    <contour>
      <point x="631" y="1415" type="line"/>
      <point x="630" y="1443"/>
      <point x="604" y="1468"/>
      <point x="564" y="1468" type="curve" smooth="yes"/>
      <point x="498" y="1468" type="line"/>
      <point x="498" y="1094" type="line"/>
      <point x="561" y="1094" type="line" smooth="yes"/>
      <point x="616" y="1094"/>
      <point x="631" y="1162"/>
      <point x="631" y="1195" type="curve" smooth="yes"/>
    </contour>
  </outline>
</glyph>
<glyph name="C" format="1">
  <advance width="1072"/>
  <unicode hex="0043"/>
  <outline>
    <contour>
      <point x="82" y="1255" type="line"/>
      <point x="82" y="1601"/>
      <point x="238" y="1778"/>
      <point x="546" y="1778" type="curve" smooth="yes"/>
      <point x="794" y="1778"/>
      <point x="995" y="1659"/>
      <point x="995" y="1388" type="curve" smooth="yes"/>
      <point x="995" y="1052" type="line"/>
      <point x="624" y="1052" type="line"/>
      <point x="624" y="1335" type="line" smooth="yes"/>
      <point x="624" y="1416"/>
      <point x="598" y="1440"/>
      <point x="552" y="1440" type="curve" smooth="yes"/>
      <point x="490" y="1440"/>
      <point x="478" y="1386"/>
      <point x="478" y="1336" type="curve" smooth="yes"/>
      <point x="478" y="394" type="line" smooth="yes"/>
      <point x="478" y="356"/>
      <point x="504" y="320"/>
      <point x="546" y="320" type="curve" smooth="yes"/>
      <point x="594" y="320"/>
      <point x="624" y="358"/>
      <point x="624" y="401" type="curve" smooth="yes"/>
      <point x="624" y="767" type="line"/>
      <point x="1003" y="767" type="line"/>
      <point x="1003" y="406" type="line" smooth="yes"/>
      <point x="1003" y="105"/>
      <point x="823" y="-18"/>
      <point x="539" y="-18" type="curve" smooth="yes"/>
      <point x="285" y="-18"/>
      <point x="82" y="145"/>
      <point x="82" y="420" type="curve" smooth="yes"/>
    </contour>
  </outline>
</glyph>
<glyph name="D" format="1">
  <advance width="1116"/>
  <unicode hex="0044"/>
  <outline>
    <contour>
      <point x="108" y="1760" type="line"/>
      <point x="631" y="1760" type="line" smooth="yes"/>
      <point x="880" y="1760"/>
      <point x="1030" y="1624"/>
      <point x="1030" y="1360" type="curve" smooth="yes"/>
      <point x="1031" y="524" type="line" smooth="yes"/>
      <point x="1031" y="197"/>
      <point x="918" y="0"/>
      <point x="618" y="0" type="curve" smooth="yes"/>
      <point x="108" y="0" type="line"/>
    </contour>
    <contour>
      <point x="638" y="1329" type="line"/>
      <point x="638" y="1427"/>
      <point x="622" y="1470"/>
      <point x="525" y="1470" type="curve" smooth="yes"/>
      <point x="500" y="1470" type="line"/>
      <point x="500" y="290" type="line"/>
      <point x="552" y="290" type="line" smooth="yes"/>
      <point x="610" y="290"/>
      <point x="641" y="316"/>
      <point x="641" y="342" type="curve" smooth="yes"/>
    </contour>
  </outline>
</glyph>
<glyph name="E" format="1">
  <advance width="890"/>
  <unicode hex="0045"/>
  <outline>
    <contour>
      <point x="108" y="1760" type="line"/>
      <point x="826" y="1760" type="line"/>
      <point x="826" y="1411" type="line"/>
      <point x="498" y="1411" type="line"/>
      <point x="498" y="1079" type="line"/>
      <point x="812" y="1079" type="line"/>
      <point x="812" y="745" type="line"/>
      <point x="498" y="745" type="line"/>
      <point x="498" y="349" type="line"/>
      <point x="854" y="349" type="line"/>
      <point x="854" y="0" type="line"/>
      <point x="108" y="0" type="line"/>
    </contour>
  </outline>
</glyph>
<glyph name="F" format="1">
  <advance width="879"/>
  <unicode hex="0046"/>
  <outline>
    <contour>
      <point x="108" y="1760" type="line"/>
      <point x="860" y="1760" type="line"/>
      <point x="860" y="1407" type="line"/>
      <point x="500" y="1407" type="line"/>
      <point x="500" y="1115" type="line"/>
      <point x="828" y="1115" type="line"/>
      <point x="828" y="763" type="line"/>
      <point x="500" y="763" type="line"/>
      <point x="500" y="0" type="line"/>
      <point x="108" y="0" type="line"/>
    </contour>
  </outline>
</glyph>
<glyph name="G" format="1">
  <advance width="1122"/>
  <unicode hex="0047"/>
  <outline>
    <contour>
      <point x="82" y="1316" type="line"/>
      <point x="82" y="1645"/>
      <point x="274" y="1778"/>
      <point x="563" y="1778" type="curve" smooth="yes"/>
      <point x="906" y="1778"/>
      <point x="1014" y="1637"/>
      <point x="1014" y="1294" type="curve" smooth="yes"/>
      <point x="1014" y="1191" type="line"/>
      <point x="664" y="1191" type="line"/>
      <point x="664" y="1285" type="line" smooth="yes"/>
      <point x="664" y="1417"/>
      <point x="633" y="1440"/>
      <point x="575" y="1440" type="curve" smooth="yes"/>
      <point x="503" y="1440"/>
      <point x="478" y="1409"/>
      <point x="478" y="1304" type="curve" smooth="yes"/>
      <point x="478" y="495" type="line" smooth="yes"/>
      <point x="478" y="372"/>
      <point x="497" y="320"/>
      <point x="569" y="320" type="curve" smooth="yes"/>
      <point x="644" y="320"/>
      <point x="692" y="375"/>
      <point x="692" y="517" type="curve" smooth="yes"/>
      <point x="692" y="770" type="line"/>
      <point x="573" y="770" type="line"/>
      <point x="573" y="1035" type="line"/>
      <point x="1014" y="1035" type="line"/>
      <point x="1014" y="0" type="line"/>
      <point x="872" y="0" type="line"/>
      <point x="805" y="247" type="line"/>
      <point x="794" y="82"/>
      <point x="640" y="-20"/>
      <point x="507" y="-20" type="curve" smooth="yes"/>
      <point x="279" y="-20"/>
      <point x="82" y="139"/>
      <point x="82" y="497" type="curve" smooth="yes"/>
    </contour>
  </outline>
</glyph>
<glyph name="H" format="1">
  <advance width="1152"/>
  <unicode hex="0048"/>
  <outline>
    <contour>
      <point x="654" y="1760" type="line"/>
      <point x="1044" y="1760" type="line"/>
      <point x="1044" y="0" type="line"/>
      <point x="654" y="0" type="line"/>
      <point x="654" y="778" type="line"/>
      <point x="498" y="778" type="line"/>
      <point x="498" y="0" type="line"/>
      <point x="108" y="0" type="line"/>
      <point x="108" y="1760" type="line"/>
      <point x="498" y="1760" type="line"/>
      <point x="498" y="1130" type="line"/>
      <point x="654" y="1130" type="line"/>
    </contour>
  </outline>
</glyph>
<glyph name="I" format="1">
  <advance width="615"/>
  <unicode hex="0049"/>
  <outline>
    <contour>
      <point x="113" y="1760" type="line"/>
      <point x="503" y="1760" type="line"/>
      <point x="503" y="0" type="line"/>
      <point x="113" y="0" type="line"/>
    </contour>
  </outline>
</glyph>
<glyph name="J" format="1">
  <advance width="1086"/>
  <unicode hex="004A"/>
  <outline>
    <contour>
      <point x="584" y="1760" type="line"/>
      <point x="974" y="1760" type="line"/>
      <point x="974" y="441" type="line" smooth="yes"/>
      <point x="974" y="166"/>
      <point x="778" y="-18"/>
      <point x="522" y="-18" type="curve" smooth="yes"/>
      <point x="278" y="-18"/>
      <point x="68" y="127"/>
      <point x="68" y="389" type="curve" smooth="yes"/>
      <point x="68" y="871" type="line"/>
      <point x="441" y="871" type="line"/>
      <point x="441" y="402" type="line" smooth="yes"/>
      <point x="441" y="355"/>
      <point x="469" y="320"/>
      <point x="510" y="320" type="curve" smooth="yes"/>
      <point x="554" y="320"/>
      <point x="584" y="348"/>
      <point x="584" y="418" type="curve" smooth="yes"/>
    </contour>
  </outline>
</glyph>
<glyph name="K" format="1">
  <advance width="1125"/>
  <unicode hex="004B"/>
  <outline>
    <contour>
      <point x="676" y="1760" type="line"/>
      <point x="1091" y="1760" type="line"/>
      <point x="871" y="894" type="line"/>
      <point x="1114" y="0" type="line"/>
      <point x="697" y="0" type="line"/>
      <point x="500" y="782" type="line"/>
      <point x="500" y="0" type="line"/>
      <point x="108" y="0" type="line"/>
      <point x="108" y="1760" type="line"/>
      <point x="498" y="1760" type="line"/>
      <point x="498" y="1008" type="line"/>
    </contour>
  </outline>
</glyph>
<glyph name="L" format="1">
  <advance width="882"/>
  <unicode hex="004C"/>
  <outline>
    <contour>
      <point x="108" y="1760" type="line"/>
      <point x="498" y="1760" type="line"/>
      <point x="498" y="342" type="line"/>
      <point x="865" y="342" type="line"/>
      <point x="865" y="0" type="line"/>
      <point x="108" y="0" type="line"/>
    </contour>
  </outline>
</glyph>
<glyph name="M" format="1">
  <advance width="1662"/>
  <unicode hex="004D"/>
  <outline>
    <contour>
      <point x="1024" y="1760" type="line"/>
      <point x="1551" y="1760" type="line"/>
      <point x="1551" y="0" type="line"/>
      <point x="1188" y="0" type="line"/>
      <point x="1188" y="636" type="line"/>
      <point x="1184" y="1126" type="line"/>
      <point x="1003" y="24" type="line"/>
      <point x="660" y="24" type="line"/>
      <point x="471" y="1126" type="line"/>
      <point x="467" y="636" type="line"/>
      <point x="467" y="0" type="line"/>
      <point x="108" y="0" type="line"/>
      <point x="108" y="1760" type="line"/>
      <point x="631" y="1760" type="line"/>
      <point x="837" y="716" type="line"/>
    </contour>
  </outline>
</glyph>
<glyph name="N" format="1">
  <advance width="1179"/>
  <unicode hex="004E"/>
  <outline>
    <contour>
      <point x="714" y="1760" type="line"/>
      <point x="1071" y="1760" type="line"/>
      <point x="1071" y="0" type="line"/>
      <point x="805" y="0" type="line"/>
      <point x="446" y="863" type="line"/>
      <point x="467" y="365" type="line"/>
      <point x="467" y="0" type="line"/>
      <point x="108" y="0" type="line"/>
      <point x="108" y="1760" type="line"/>
      <point x="426" y="1760" type="line"/>
      <point x="729" y="988" type="line"/>
      <point x="714" y="1410" type="line"/>
    </contour>
  </outline>
</glyph>
<glyph name="O" format="1">
  <advance width="1109"/>
  <unicode hex="004F"/>
  <outline>
    <contour>
      <point x="82" y="1327" type="line"/>
      <point x="82" y="1630"/>
      <point x="275" y="1779"/>
      <point x="557" y="1779" type="curve" smooth="yes"/>
      <point x="839" y="1779"/>
      <point x="1024" y="1630"/>
      <point x="1024" y="1327" type="curve" smooth="yes"/>
      <point x="1024" y="464" type="line" smooth="yes"/>
      <point x="1024" y="159"/>
      <point x="852" y="-20"/>
      <point x="558" y="-20" type="curve" smooth="yes"/>
      <point x="264" y="-20"/>
      <point x="82" y="159"/>
      <point x="82" y="464" type="curve" smooth="yes"/>
    </contour>
    <contour>
      <point x="631" y="1339" type="line"/>
      <point x="631" y="1376"/>
      <point x="618" y="1439"/>
      <point x="557" y="1439" type="curve" smooth="yes"/>
      <point x="498" y="1439"/>
      <point x="478" y="1389"/>
      <point x="478" y="1340" type="curve" smooth="yes"/>
      <point x="478" y="459" type="line" smooth="yes"/>
      <point x="478" y="400"/>
      <point x="481" y="320"/>
      <point x="558" y="320" type="curve" smooth="yes"/>
      <point x="627" y="320"/>
      <point x="631" y="408"/>
      <point x="631" y="459" type="curve" smooth="yes"/>
    </contour>
  </outline>
</glyph>
<glyph name="P" format="1">
  <advance width="1041"/>
  <unicode hex="0050"/>
  <outline>
    <contour>
      <point x="108" y="1760" type="line"/>
      <point x="612" y="1760" type="line" smooth="yes"/>
      <point x="890" y="1760"/>
      <point x="1019" y="1626"/>
      <point x="1030" y="1280" type="curve" smooth="yes"/>
      <point x="1028" y="1286"/>
      <point x="1028" y="1217"/>
      <point x="1028" y="1223" type="curve" smooth="yes"/>
      <point x="1028" y="910"/>
      <point x="937" y="700"/>
      <point x="639" y="700" type="curve" smooth="yes"/>
      <point x="498" y="700" type="line"/>
      <point x="498" y="0" type="line"/>
      <point x="108" y="0" type="line"/>
    </contour>
    <contour>
      <point x="638" y="1266" type="line"/>
      <point x="635" y="1387"/>
      <point x="621" y="1470"/>
      <point x="518" y="1470" type="curve" smooth="yes"/>
      <point x="498" y="1470" type="line"/>
      <point x="498" y="1019" type="line"/>
      <point x="522" y="1019" type="line" smooth="yes"/>
      <point x="634" y="1019"/>
      <point x="638" y="1081"/>
      <point x="638" y="1232" type="curve" smooth="yes"/>
    </contour>
  </outline>
</glyph>
<glyph name="Q" format="1">
  <advance width="1109"/>
  <unicode hex="0051"/>
  <outline>
    <contour>
      <point x="496" y="7" type="line"/>
      <point x="728" y="149" type="line"/>
      <point x="1006" y="-179" type="line"/>
      <point x="814" y="-338" type="line"/>
    </contour>
    <component base="O"/>
  </outline>
</glyph>
<glyph name="R" format="1">
  <advance width="1098"/>
  <unicode hex="0052"/>
  <outline>
    <contour>
      <point x="108" y="1760" type="line"/>
      <point x="699" y="1760" type="line" smooth="yes"/>
      <point x="969" y="1760"/>
      <point x="1020" y="1558"/>
      <point x="1020" y="1260" type="curve" smooth="yes"/>
      <point x="1020" y="1073"/>
      <point x="997" y="986"/>
      <point x="862" y="940" type="curve"/>
      <point x="970" y="918"/>
      <point x="1027" y="811"/>
      <point x="1027" y="739" type="curve" smooth="yes"/>
      <point x="1027" y="750"/>
      <point x="1027" y="-9"/>
      <point x="1025" y="0" type="curve"/>
      <point x="633" y="0" type="line"/>
      <point x="636" y="-6"/>
      <point x="635" y="778"/>
      <point x="635" y="707" type="curve" smooth="yes"/>
      <point x="635" y="778"/>
      <point x="575" y="791"/>
      <point x="510" y="795" type="curve"/>
      <point x="495" y="795"/>
      <point x="516" y="793"/>
      <point x="498" y="793" type="curve"/>
      <point x="498" y="0" type="line"/>
      <point x="108" y="0" type="line"/>
    </contour>
    <contour>
      <point x="635" y="1311" type="line"/>
      <point x="635" y="1421"/>
      <point x="629" y="1470"/>
      <point x="514" y="1470" type="curve" smooth="yes"/>
      <point x="501" y="1470" type="line"/>
      <point x="501" y="1113" type="line"/>
      <point x="558" y="1113" type="line" smooth="yes"/>
      <point x="624" y="1113"/>
      <point x="635" y="1175"/>
      <point x="635" y="1302" type="curve" smooth="yes"/>
    </contour>
  </outline>
</glyph>
<glyph name="S" format="1">
  <advance width="972"/>
  <unicode hex="0053"/>
  <outline>
    <contour>
      <point x="60" y="1355" type="curve" smooth="yes"/>
      <point x="60" y="1659"/>
      <point x="196" y="1779"/>
      <point x="493" y="1779" type="curve" smooth="yes"/>
      <point x="770" y="1779"/>
      <point x="905" y="1663"/>
      <point x="905" y="1353" type="curve" smooth="yes"/>
      <point x="905" y="1234" type="line"/>
      <point x="560" y="1234" type="line"/>
      <point x="560" y="1376" type="line" smooth="yes"/>
      <point x="560" y="1430"/>
      <point x="533" y="1449"/>
      <point x="487" y="1449" type="curve" smooth="yes"/>
      <point x="440" y="1449"/>
      <point x="418" y="1429"/>
      <point x="418" y="1386" type="curve" smooth="yes"/>
      <point x="418" y="1335"/>
      <point x="443" y="1271"/>
      <point x="499" y="1205" type="curve"/>
      <point x="694" y="988" type="line" smooth="yes"/>
      <point x="859" y="802"/>
      <point x="922" y="653"/>
      <point x="922" y="491" type="curve" smooth="yes"/>
      <point x="922" y="127"/>
      <point x="788" y="-20"/>
      <point x="502" y="-20" type="curve" smooth="yes"/>
      <point x="195" y="-20"/>
      <point x="48" y="114"/>
      <point x="48" y="467" type="curve" smooth="yes"/>
      <point x="48" y="596" type="line"/>
      <point x="408" y="596" type="line"/>
      <point x="408" y="423" type="line" smooth="yes"/>
      <point x="408" y="347"/>
      <point x="435" y="313"/>
      <point x="483" y="313" type="curve" smooth="yes"/>
      <point x="527" y="313"/>
      <point x="557" y="345"/>
      <point x="557" y="413" type="curve" smooth="yes"/>
      <point x="557" y="495"/>
      <point x="506" y="591"/>
      <point x="378" y="734" type="curve" smooth="yes"/>
      <point x="218" y="906" type="line" smooth="yes"/>
      <point x="97" y="1037"/>
      <point x="60" y="1172"/>
    </contour>
  </outline>
</glyph>
<glyph name="T" format="1">
  <advance width="863"/>
  <unicode hex="0054"/>
  <outline>
    <contour>
      <point x="6" y="1760" type="line"/>
      <point x="857" y="1760" type="line"/>
      <point x="857" y="1408" type="line"/>
      <point x="625" y="1408" type="line"/>
      <point x="625" y="0" type="line"/>
      <point x="236" y="0" type="line"/>
      <point x="236" y="1408" type="line"/>
      <point x="6" y="1408" type="line"/>
    </contour>
  </outline>
</glyph>
<glyph name="U" format="1">
  <advance width="1134"/>
  <unicode hex="0055"/>
  <outline>
    <contour>
      <point x="643" y="1763" type="line"/>
      <point x="1035" y="1763" type="line"/>
      <point x="1035" y="452" type="line" smooth="yes"/>
      <point x="1035" y="132"/>
      <point x="866" y="-18"/>
      <point x="566" y="-18" type="curve" smooth="yes"/>
      <point x="266" y="-18"/>
      <point x="97" y="132"/>
      <point x="97" y="452" type="curve" smooth="yes"/>
      <point x="97" y="1763" type="line"/>
      <point x="487" y="1763" type="line"/>
      <point x="487" y="457" type="line" smooth="yes"/>
      <point x="487" y="390"/>
      <point x="496" y="319"/>
      <point x="563" y="319" type="curve" smooth="yes"/>
      <point x="634" y="319"/>
      <point x="643" y="389"/>
      <point x="643" y="459" type="curve" smooth="yes"/>
    </contour>
  </outline>
</glyph>
<glyph name="V" format="1">
  <advance width="1025"/>
  <unicode hex="0056"/>
  <outline>
    <contour>
      <point x="634" y="1760" type="line"/>
      <point x="994" y="1760" type="line"/>
      <point x="775" y="0" type="line"/>
      <point x="264" y="0" type="line"/>
      <point x="31" y="1760" type="line"/>
      <point x="402" y="1760" type="line"/>
      <point x="513" y="865" type="line"/>
      <point x="526" y="495" type="line"/>
      <point x="539" y="495" type="line"/>
      <point x="548" y="865" type="line"/>
    </contour>
  </outline>
</glyph>
<glyph name="W" format="1">
  <advance width="1400"/>
  <unicode hex="0057"/>
  <outline>
    <contour>
      <point x="1029" y="1760" type="line"/>
      <point x="1372" y="1760" type="line"/>
      <point x="1182" y="0" type="line"/>
      <point x="791" y="0" type="line"/>
      <point x="699" y="912" type="line"/>
      <point x="611" y="0" type="line"/>
      <point x="210" y="0" type="line"/>
      <point x="29" y="1760" type="line"/>
      <point x="367" y="1760" type="line"/>
      <point x="454" y="696" type="line"/>
      <point x="546" y="1760" type="line"/>
      <point x="856" y="1760" type="line"/>
      <point x="941" y="696" type="line"/>
    </contour>
  </outline>
</glyph>
<glyph name="X" format="1">
  <advance width="1101"/>
  <unicode hex="0058"/>
  <outline>
    <contour>
      <point x="639" y="1760" type="line"/>
      <point x="1020" y="1760" type="line"/>
      <point x="710" y="863" type="line"/>
      <point x="1067" y="0" type="line"/>
      <point x="731" y="0" type="line"/>
      <point x="552" y="407" type="line"/>
      <point x="433" y="0" type="line"/>
      <point x="34" y="0" type="line"/>
      <point x="343" y="968" type="line"/>
      <point x="21" y="1760" type="line"/>
      <point x="337" y="1760" type="line"/>
      <point x="518" y="1363" type="line"/>
    </contour>
  </outline>
</glyph>
<glyph name="Y" format="1">
  <advance width="982"/>
  <unicode hex="0059"/>
  <outline>
    <contour>
      <point x="609" y="1760" type="line"/>
      <point x="960" y="1760" type="line"/>
      <point x="685" y="631" type="line"/>
      <point x="685" y="0" type="line"/>
      <point x="295" y="0" type="line"/>
      <point x="295" y="631" type="line"/>
      <point x="22" y="1760" type="line"/>
      <point x="380" y="1760" type="line"/>
      <point x="494" y="1216" type="line"/>
      <point x="498" y="1216" type="line"/>
    </contour>
  </outline>
</glyph>
<glyph name="Z" format="1">
  <advance width="867"/>
  <unicode hex="005A"/>
  <outline>
    <contour>
      <point x="84" y="1760" type="line"/>
      <point x="835" y="1760" type="line"/>
      <point x="835" y="1425" type="line"/>
      <point x="466" y="349" type="line"/>
      <point x="827" y="349" type="line"/>
      <point x="827" y="0" type="line"/>
      <point x="51" y="0" type="line"/>
      <point x="51" y="356" type="line"/>
      <point x="420" y="1411" type="line"/>
      <point x="84" y="1411" type="line"/>
    </contour>
  </outline>
</glyph>
<glyph name="bracketleft" format="1">
  <advance width="1036"/>
  <unicode hex="005B"/>
  <outline>
    <contour>
      <point x="249" y="1761" type="line"/>
      <point x="832" y="1761" type="line"/>
      <point x="832" y="1454" type="line"/>
      <point x="635" y="1454" type="line"/>
      <point x="635" y="547" type="line"/>
      <point x="832" y="547" type="line"/>
      <point x="832" y="240" type="line"/>
      <point x="249" y="240" type="line"/>
    </contour>
  </outline>
</glyph>
<glyph name="backslash" format="1">
  <advance width="1132"/>
  <unicode hex="005C"/>
  <outline>
    <contour>
      <point x="144" y="1761" type="line"/>
      <point x="494" y="1761" type="line"/>
      <point x="904" y="0" type="line"/>
      <point x="555" y="0" type="line"/>
    </contour>
  </outline>
</glyph>
<glyph name="bracketright" format="1">
  <advance width="1036"/>
  <unicode hex="005D"/>
  <outline>
    <contour>
      <point x="850" y="1761" type="line"/>
      <point x="850" y="240" type="line"/>
      <point x="267" y="240" type="line"/>
      <point x="267" y="547" type="line"/>
      <point x="464" y="547" type="line"/>
      <point x="464" y="1454" type="line"/>
      <point x="267" y="1454" type="line"/>
      <point x="267" y="1761" type="line"/>
    </contour>
  </outline>
</glyph>
<glyph name="asciicircum" format="1">
  <advance width="1252"/>
  <unicode hex="005E"/>
  <outline>
    <contour>
      <point x="407" y="977" type="line"/>
      <point x="842" y="977" type="line"/>
      <point x="1083" y="54" type="line"/>
      <point x="717" y="54" type="line"/>
      <point x="625" y="664" type="line"/>
      <point x="533" y="54" type="line"/>
      <point x="166" y="54" type="line"/>
    </contour>
  </outline>
</glyph>
<glyph name="grave" format="1">
  <advance width="650"/>
  <unicode hex="0060"/>
  <outline>
    <contour>
      <point x="821" y="-328" type="line"/>
      <point x="633" y="-54" type="line"/>
      <point x="-384" y="228" type="line"/>
      <point x="4" y="281" type="line"/>
    </contour>
  </outline>
</glyph>
<glyph name="a" format="1">
  <advance width="1106"/>
  <unicode hex="0061"/>
  <outline>
    <contour>
      <point x="609" y="788" type="line"/>
      <point x="544" y="759"/>
      <point x="473" y="695"/>
      <point x="473" y="599" type="curve" smooth="yes"/>
      <point x="473" y="373" type="line" smooth="yes"/>
      <point x="473" y="299"/>
      <point x="502" y="261"/>
      <point x="548" y="261" type="curve" smooth="yes"/>
      <point x="602" y="261"/>
      <point x="613" y="322"/>
      <point x="609" y="382" type="curve"/>
    </contour>
    <contour>
      <point x="99" y="1111" type="line"/>
      <point x="99" y="1421"/>
      <point x="251" y="1518"/>
      <point x="561" y="1518" type="curve" smooth="yes"/>
      <point x="796" y="1518"/>
      <point x="1008" y="1430"/>
      <point x="1008" y="1201" type="curve" smooth="yes"/>
      <point x="1008" y="0" type="line"/>
      <point x="619" y="0" type="line"/>
      <point x="619" y="187" type="line"/>
      <point x="580" y="51"/>
      <point x="490" y="-19"/>
      <point x="388" y="-19" type="curve" smooth="yes"/>
      <point x="134" y="-19"/>
      <point x="81" y="169"/>
      <point x="77" y="412" type="curve"/>
      <point x="77" y="408" type="line" smooth="yes"/>
      <point x="77" y="838"/>
      <point x="271" y="862"/>
      <point x="609" y="972" type="curve"/>
      <point x="609" y="1133" type="line" smooth="yes"/>
      <point x="609" y="1204"/>
      <point x="593" y="1218"/>
      <point x="545" y="1218" type="curve" smooth="yes"/>
      <point x="498" y="1218"/>
      <point x="477" y="1186"/>
      <point x="477" y="1159" type="curve" smooth="yes"/>
      <point x="477" y="1062" type="line"/>
      <point x="99" y="1062" type="line"/>
    </contour>
  </outline>
</glyph>
<glyph name="b" format="1">
  <advance width="1114"/>
  <unicode hex="0062"/>
  <outline>
    <contour>
      <point x="646" y="1085" type="line"/>
      <point x="646" y="1159"/>
      <point x="638" y="1220"/>
      <point x="575" y="1220" type="curve" smooth="yes"/>
      <point x="506" y="1220"/>
      <point x="492" y="1151"/>
      <point x="492" y="1090" type="curve" smooth="yes"/>
      <point x="492" y="452" type="line" smooth="yes"/>
      <point x="492" y="363"/>
      <point x="502" y="283"/>
      <point x="577" y="283" type="curve"/>
      <point x="653" y="281"/>
      <point x="646" y="361"/>
      <point x="646" y="451" type="curve" smooth="yes"/>
    </contour>
    <contour>
      <point x="492" y="1414" type="line"/>
      <point x="536" y="1478"/>
      <point x="617" y="1515"/>
      <point x="674" y="1518" type="curve" smooth="yes"/>
      <point x="939" y="1530"/>
      <point x="1032" y="1379"/>
      <point x="1032" y="1127" type="curve" smooth="yes"/>
      <point x="1032" y="376" type="line" smooth="yes"/>
      <point x="1032" y="153"/>
      <point x="932" y="-19"/>
      <point x="708" y="-19" type="curve" smooth="yes"/>
      <point x="605" y="-19"/>
      <point x="534" y="43"/>
      <point x="492" y="168" type="curve"/>
      <point x="492" y="0" type="line"/>
      <point x="107" y="0" type="line"/>
      <point x="107" y="1767" type="line"/>
      <point x="492" y="1767" type="line"/>
    </contour>
  </outline>
</glyph>
<glyph name="c" format="1">
  <advance width="1060"/>
  <unicode hex="0063"/>
  <outline>
    <contour>
      <point x="82" y="942" type="line"/>
      <point x="82" y="1335"/>
      <point x="191" y="1518"/>
      <point x="563" y="1518" type="curve" smooth="yes"/>
      <point x="808" y="1518"/>
      <point x="991" y="1389"/>
      <point x="991" y="1153" type="curve" smooth="yes"/>
      <point x="991" y="866" type="line"/>
      <point x="627" y="866" type="line"/>
      <point x="627" y="1124" type="line" smooth="yes"/>
      <point x="627" y="1172"/>
      <point x="609" y="1219"/>
      <point x="549" y="1219" type="curve" smooth="yes"/>
      <point x="504" y="1219"/>
      <point x="471" y="1188"/>
      <point x="471" y="1124" type="curve" smooth="yes"/>
      <point x="471" y="372" type="line" smooth="yes"/>
      <point x="471" y="336"/>
      <point x="499" y="281"/>
      <point x="549" y="281" type="curve" smooth="yes"/>
      <point x="603" y="281"/>
      <point x="627" y="329"/>
      <point x="627" y="377" type="curve" smooth="yes"/>
      <point x="627" y="621" type="line"/>
      <point x="991" y="621" type="line"/>
      <point x="991" y="359" type="line" smooth="yes"/>
      <point x="991" y="121"/>
      <point x="809" y="-18"/>
      <point x="564" y="-18" type="curve" smooth="yes"/>
      <point x="220" y="-18"/>
      <point x="82" y="151"/>
      <point x="82" y="488" type="curve" smooth="yes"/>
    </contour>
  </outline>
</glyph>
<glyph name="d" format="1">
  <advance width="1116"/>
  <unicode hex="0064"/>
  <outline>
    <contour>
      <point x="631" y="1767" type="line"/>
      <point x="1014" y="1767" type="line"/>
      <point x="1014" y="0" type="line"/>
      <point x="631" y="0" type="line"/>
      <point x="631" y="165" type="line"/>
      <point x="591" y="57"/>
      <point x="531" y="-19"/>
      <point x="400" y="-19" type="curve" smooth="yes"/>
      <point x="112" y="-19"/>
      <point x="82" y="203"/>
      <point x="82" y="477" type="curve" smooth="yes"/>
      <point x="82" y="1176" type="line" smooth="yes"/>
      <point x="82" y="1365"/>
      <point x="200" y="1518"/>
      <point x="401" y="1518" type="curve" smooth="yes"/>
      <point x="500" y="1518"/>
      <point x="581" y="1487"/>
      <point x="631" y="1421" type="curve"/>
    </contour>
    <contour>
      <point x="632" y="1089" type="line"/>
      <point x="632" y="1137"/>
      <point x="617" y="1217"/>
      <point x="554" y="1217" type="curve"/>
      <point x="481" y="1219"/>
      <point x="471" y="1143"/>
      <point x="471" y="1090" type="curve" smooth="yes"/>
      <point x="471" y="451" type="line" smooth="yes"/>
      <point x="471" y="334"/>
      <point x="506" y="280"/>
      <point x="552" y="280" type="curve" smooth="yes"/>
      <point x="652" y="280"/>
      <point x="632" y="422"/>
      <point x="632" y="493" type="curve" smooth="yes"/>
    </contour>
  </outline>
</glyph>
<glyph name="e" format="1">
  <advance width="1075"/>
  <unicode hex="0065"/>
  <outline>
    <contour>
      <point x="82" y="1104" type="line"/>
      <point x="82" y="1380"/>
      <point x="274" y="1518"/>
      <point x="555" y="1518" type="curve" smooth="yes"/>
      <point x="845" y="1518"/>
      <point x="1006" y="1390"/>
      <point x="1006" y="1107" type="curve" smooth="yes"/>
      <point x="1006" y="710" type="line"/>
      <point x="471" y="710" type="line"/>
      <point x="471" y="423" type="line" smooth="yes"/>
      <point x="471" y="365"/>
      <point x="475" y="282"/>
      <point x="549" y="282" type="curve" smooth="yes"/>
      <point x="629" y="282"/>
      <point x="624" y="358"/>
      <point x="624" y="429" type="curve" smooth="yes"/>
      <point x="624" y="583" type="line"/>
      <point x="1008" y="583" type="line"/>
      <point x="1008" y="471" type="line" smooth="yes"/>
      <point x="1008" y="129"/>
      <point x="885" y="-18"/>
      <point x="535" y="-18" type="curve" smooth="yes"/>
      <point x="206" y="-18"/>
      <point x="82" y="165"/>
      <point x="82" y="487" type="curve" smooth="yes"/>
    </contour>
    <contour>
      <point x="624" y="1091" type="line"/>
      <point x="624" y="1183"/>
      <point x="594" y="1229"/>
      <point x="549" y="1229" type="curve" smooth="yes"/>
      <point x="469" y="1229"/>
      <point x="470" y="1158"/>
      <point x="470" y="1084" type="curve" smooth="yes"/>
      <point x="470" y="897" type="line"/>
      <point x="624" y="897" type="line"/>
    </contour>
  </outline>
</glyph>
<glyph name="f" format="1">
  <advance width="678"/>
  <unicode hex="0066"/>
  <outline>
    <contour>
      <point x="145" y="1527" type="line"/>
      <point x="145" y="1685"/>
      <point x="273" y="1780"/>
      <point x="434" y="1780" type="curve" smooth="yes"/>
      <point x="522" y="1780"/>
      <point x="595" y="1761"/>
      <point x="631" y="1747" type="curve"/>
      <point x="631" y="1535" type="line"/>
      <point x="619" y="1536"/>
      <point x="607" y="1535"/>
      <point x="593" y="1535" type="curve" smooth="yes"/>
      <point x="569" y="1535"/>
      <point x="527" y="1531"/>
      <point x="527" y="1487" type="curve" smooth="yes"/>
      <point x="527" y="1439" type="line"/>
      <point x="631" y="1439" type="line"/>
      <point x="631" y="1168" type="line"/>
      <point x="527" y="1168" type="line"/>
      <point x="527" y="0" type="line"/>
      <point x="142" y="0" type="line"/>
      <point x="142" y="1168" type="line"/>
      <point x="52" y="1168" type="line"/>
      <point x="52" y="1439" type="line"/>
      <point x="145" y="1439" type="line"/>
    </contour>
  </outline>
</glyph>
<glyph name="g" format="1">
  <advance width="1112"/>
  <unicode hex="0067"/>
  <outline>
    <contour>
      <point x="98" y="1119" type="line"/>
      <point x="98" y="1354"/>
      <point x="157" y="1518"/>
      <point x="396" y="1518" type="curve" smooth="yes"/>
      <point x="535" y="1520"/>
      <point x="609" y="1438"/>
      <point x="634" y="1321" type="curve"/>
      <point x="634" y="1500" type="line"/>
      <point x="1019" y="1500" type="line"/>
      <point x="1019" y="275" type="line" smooth="yes"/>
      <point x="1019" y="-95"/>
      <point x="864" y="-220"/>
      <point x="515" y="-217" type="curve" smooth="yes"/>
      <point x="291" y="-218"/>
      <point x="189" y="-193"/>
      <point x="62" y="-88" type="curve"/>
      <point x="193" y="133" type="line"/>
      <point x="288" y="78"/>
      <point x="376" y="53"/>
      <point x="460" y="53" type="curve" smooth="yes"/>
      <point x="577" y="52"/>
      <point x="634" y="133"/>
      <point x="634" y="253" type="curve" smooth="yes"/>
      <point x="634" y="324" type="line"/>
      <point x="607" y="222"/>
      <point x="528" y="179"/>
      <point x="399" y="179" type="curve" smooth="yes"/>
      <point x="182" y="179"/>
      <point x="98" y="325"/>
      <point x="98" y="530" type="curve" smooth="yes"/>
    </contour>
    <contour>
      <point x="634" y="1125" type="line"/>
      <point x="634" y="1157"/>
      <point x="599" y="1218"/>
      <point x="555" y="1218" type="curve" smooth="yes"/>
      <point x="494" y="1218"/>
      <point x="487" y="1173"/>
      <point x="487" y="1124" type="curve" smooth="yes"/>
      <point x="487" y="576" type="line" smooth="yes"/>
      <point x="487" y="530"/>
      <point x="489" y="456"/>
      <point x="556" y="456" type="curve" smooth="yes"/>
      <point x="609" y="456"/>
      <point x="634" y="506"/>
      <point x="634" y="578" type="curve" smooth="yes"/>
    </contour>
  </outline>
</glyph>
<glyph name="h" format="1">
  <advance width="1122"/>
  <unicode hex="0068"/>
  <outline>
    <contour>
      <point x="115" y="1767" type="line"/>
      <point x="500" y="1767" type="line"/>
      <point x="500" y="1302" type="line"/>
      <point x="526" y="1422"/>
      <point x="592" y="1516"/>
      <point x="721" y="1516" type="curve" smooth="yes"/>
      <point x="943" y="1516"/>
      <point x="1031" y="1371"/>
      <point x="1031" y="1151" type="curve" smooth="yes"/>
      <point x="1031" y="0" type="line"/>
      <point x="649" y="0" type="line"/>
      <point x="649" y="1110" type="line" smooth="yes"/>
      <point x="649" y="1154"/>
      <point x="633" y="1219"/>
      <point x="577" y="1219" type="curve" smooth="yes"/>
      <point x="494" y="1219"/>
      <point x="500" y="1111"/>
      <point x="500" y="1037" type="curve" smooth="yes"/>
      <point x="500" y="0" type="line"/>
      <point x="115" y="0" type="line"/>
    </contour>
  </outline>
</glyph>
<glyph name="i" format="1">
  <advance width="602"/>
  <unicode hex="0069"/>
  <outline>
    <contour>
      <point x="117" y="1500" type="line"/>
      <point x="502" y="1500" type="line"/>
      <point x="502" y="0" type="line"/>
      <point x="117" y="0" type="line"/>
    </contour>
    <contour>
      <point x="108" y="1952" type="line"/>
      <point x="497" y="1952" type="line"/>
      <point x="497" y="1638" type="line"/>
      <point x="108" y="1638" type="line"/>
    </contour>
  </outline>
</glyph>
<glyph name="j" format="1">
  <advance width="628"/>
  <unicode hex="006A"/>
  <outline>
    <contour>
      <point x="164" y="1500" type="line"/>
      <point x="549" y="1500" type="line"/>
      <point x="549" y="197" type="line" smooth="yes"/>
      <point x="549" y="-25"/>
      <point x="477" y="-169"/>
      <point x="245" y="-170" type="curve"/>
      <point x="166" y="-170"/>
      <point x="85" y="-161"/>
      <point x="56" y="-140" type="curve"/>
      <point x="56" y="121" type="line"/>
      <point x="64" y="118"/>
      <point x="70" y="118"/>
      <point x="75" y="120" type="curve" smooth="yes"/>
      <point x="141" y="118"/>
      <point x="164" y="150"/>
      <point x="164" y="187" type="curve" smooth="yes"/>
    </contour>
    <contour>
      <point x="156" y="1952" type="line"/>
      <point x="545" y="1952" type="line"/>
      <point x="545" y="1638" type="line"/>
      <point x="156" y="1638" type="line"/>
    </contour>
  </outline>
</glyph>
<glyph name="k" format="1">
  <advance width="1091"/>
  <unicode hex="006B"/>
  <outline>
    <contour>
      <point x="107" y="1767" type="line"/>
      <point x="492" y="1767" type="line"/>
      <point x="492" y="880" type="line"/>
      <point x="670" y="1500" type="line"/>
      <point x="1063" y="1500" type="line"/>
      <point x="828" y="768" type="line"/>
      <point x="1080" y="0" type="line"/>
      <point x="692" y="0" type="line"/>
      <point x="492" y="679" type="line"/>
      <point x="492" y="0" type="line"/>
      <point x="107" y="0" type="line"/>
    </contour>
  </outline>
</glyph>
<glyph name="l" format="1">
  <advance width="587"/>
  <unicode hex="006C"/>
  <outline>
    <contour>
      <point x="102" y="1767" type="line"/>
      <point x="484" y="1767" type="line"/>
      <point x="484" y="0" type="line"/>
      <point x="102" y="0" type="line"/>
    </contour>
  </outline>
</glyph>
<glyph name="n" format="1">
  <advance width="1124"/>
  <unicode hex="006E"/>
  <outline>
    <contour>
      <point x="492" y="1302" type="line"/>
      <point x="518" y="1422"/>
      <point x="601" y="1516"/>
      <point x="731" y="1516" type="curve" smooth="yes"/>
      <point x="950" y="1516"/>
      <point x="1033" y="1371"/>
      <point x="1033" y="1151" type="curve" smooth="yes"/>
      <point x="1033" y="0" type="line"/>
      <point x="648" y="0" type="line"/>
      <point x="648" y="1105" type="line" smooth="yes"/>
      <point x="648" y="1154"/>
      <point x="630" y="1218"/>
      <point x="574" y="1218" type="curve" smooth="yes"/>
      <point x="491" y="1218"/>
      <point x="492" y="1106"/>
      <point x="492" y="1031" type="curve" smooth="yes"/>
      <point x="492" y="0" type="line"/>
      <point x="107" y="0" type="line"/>
      <point x="107" y="1500" type="line"/>
      <point x="492" y="1500" type="line"/>
    </contour>
  </outline>
</glyph>
<glyph name="o" format="1">
  <advance width="1082"/>
  <unicode hex="006F"/>
  <outline>
    <contour>
      <point x="82" y="1057" type="line"/>
      <point x="82" y="1339"/>
      <point x="259" y="1518"/>
      <point x="540" y="1518" type="curve" smooth="yes"/>
      <point x="822" y="1518"/>
      <point x="1000" y="1340"/>
      <point x="1000" y="1057" type="curve" smooth="yes"/>
      <point x="1000" y="436" type="line" smooth="yes"/>
      <point x="1000" y="130"/>
      <point x="846" y="-18"/>
      <point x="540" y="-18" type="curve" smooth="yes"/>
      <point x="239" y="-18"/>
      <point x="82" y="125"/>
      <point x="82" y="436" type="curve" smooth="yes"/>
    </contour>
    <contour>
      <point x="611" y="1116" type="line"/>
      <point x="611" y="1187"/>
      <point x="586" y="1218"/>
      <point x="540" y="1218" type="curve" smooth="yes"/>
      <point x="496" y="1218"/>
      <point x="471" y="1187"/>
      <point x="471" y="1116" type="curve" smooth="yes"/>
      <point x="471" y="361" type="line" smooth="yes"/>
      <point x="471" y="316"/>
      <point x="493" y="282"/>
      <point x="540" y="282" type="curve" smooth="yes"/>
      <point x="593" y="282"/>
      <point x="611" y="316"/>
      <point x="611" y="361" type="curve" smooth="yes"/>
    </contour>
  </outline>
</glyph>
<glyph name="p" format="1">
  <advance width="1116"/>
  <unicode hex="0070"/>
  <outline>
    <contour>
      <point x="487" y="1345" type="line"/>
      <point x="524" y="1443"/>
      <point x="629" y="1519"/>
      <point x="719" y="1519" type="curve" smooth="yes"/>
      <point x="977" y="1519"/>
      <point x="1034" y="1326"/>
      <point x="1034" y="1084" type="curve" smooth="yes"/>
      <point x="1034" y="529" type="line" smooth="yes"/>
      <point x="1034" y="230"/>
      <point x="1013" y="-18"/>
      <point x="707" y="-18" type="curve" smooth="yes"/>
      <point x="615" y="-18"/>
      <point x="537" y="25"/>
      <point x="487" y="73" type="curve"/>
      <point x="487" y="-307" type="line"/>
      <point x="102" y="-307" type="line"/>
      <point x="102" y="1500" type="line"/>
      <point x="487" y="1500" type="line"/>
    </contour>
    <contour>
      <point x="645" y="1084" type="line"/>
      <point x="645" y="1144"/>
      <point x="637" y="1220"/>
      <point x="566" y="1220" type="curve" smooth="yes"/>
      <point x="516" y="1220"/>
      <point x="487" y="1165"/>
      <point x="487" y="1087" type="curve" smooth="yes"/>
      <point x="487" y="415" type="line" smooth="yes"/>
      <point x="487" y="351"/>
      <point x="501" y="283"/>
      <point x="568" y="283" type="curve"/>
      <point x="637" y="281"/>
      <point x="645" y="361"/>
      <point x="645" y="432" type="curve" smooth="yes"/>
    </contour>
  </outline>
</glyph>
<glyph name="q" format="1">
  <advance width="1108"/>
  <unicode hex="0071"/>
  <outline>
    <contour>
      <point x="82" y="1084" type="line"/>
      <point x="82" y="1325"/>
      <point x="177" y="1519"/>
      <point x="407" y="1519" type="curve" smooth="yes"/>
      <point x="497" y="1519"/>
      <point x="586" y="1472"/>
      <point x="621" y="1392" type="curve"/>
      <point x="621" y="1500" type="line"/>
      <point x="1006" y="1500" type="line"/>
      <point x="1006" y="-307" type="line"/>
      <point x="621" y="-307" type="line"/>
      <point x="621" y="98" type="line"/>
      <point x="596" y="35"/>
      <point x="504" y="-18"/>
      <point x="409" y="-18" type="curve" smooth="yes"/>
      <point x="139" y="-18"/>
      <point x="82" y="190"/>
      <point x="82" y="483" type="curve" smooth="yes"/>
    </contour>
    <contour>
      <point x="623" y="1089" type="line"/>
      <point x="623" y="1174"/>
      <point x="591" y="1217"/>
      <point x="543" y="1217" type="curve"/>
      <point x="472" y="1219"/>
      <point x="470" y="1137"/>
      <point x="470" y="1086" type="curve" smooth="yes"/>
      <point x="470" y="434" type="line" smooth="yes"/>
      <point x="470" y="359"/>
      <point x="476" y="280"/>
      <point x="544" y="280" type="curve" smooth="yes"/>
      <point x="616" y="280"/>
      <point x="623" y="360"/>
      <point x="623" y="417" type="curve" smooth="yes"/>
    </contour>
  </outline>
</glyph>
<glyph name="r" format="1">
  <advance width="788"/>
  <unicode hex="0072"/>
  <outline>
    <contour>
      <point x="491" y="1333" type="line"/>
      <point x="525" y="1449"/>
      <point x="613" y="1518"/>
      <point x="746" y="1518" type="curve" smooth="yes"/>
      <point x="751" y="1518"/>
      <point x="749" y="1194"/>
      <point x="749" y="1194" type="curve"/>
      <point x="662" y="1194"/>
      <point x="478" y="1163"/>
      <point x="491" y="1132" type="curve"/>
      <point x="491" y="0" type="line"/>
      <point x="102" y="0" type="line"/>
      <point x="102" y="1500" type="line"/>
      <point x="491" y="1500" type="line"/>
    </contour>
  </outline>
</glyph>
<glyph name="s" format="1">
  <advance width="979"/>
  <unicode hex="0073"/>
  <outline>
    <contour>
      <point x="63" y="1120" type="curve" smooth="yes"/>
      <point x="63" y="1398"/>
      <point x="184" y="1518"/>
      <point x="482" y="1518" type="curve" smooth="yes"/>
      <point x="762" y="1518"/>
      <point x="878" y="1404"/>
      <point x="878" y="1149" type="curve" smooth="yes"/>
      <point x="878" y="1047" type="line"/>
      <point x="557" y="1047" type="line"/>
      <point x="557" y="1136" type="line" smooth="yes"/>
      <point x="557" y="1196"/>
      <point x="535" y="1219"/>
      <point x="484" y="1219" type="curve" smooth="yes"/>
      <point x="438" y="1219"/>
      <point x="420" y="1197"/>
      <point x="419" y="1150" type="curve"/>
      <point x="420" y="1102"/>
      <point x="433" y="1074"/>
      <point x="463" y="1051" type="curve"/>
      <point x="673" y="866" type="line"/>
      <point x="838" y="719"/>
      <point x="906" y="587"/>
      <point x="906" y="407" type="curve" smooth="yes"/>
      <point x="906" y="105"/>
      <point x="776" y="-17"/>
      <point x="473" y="-17" type="curve" smooth="yes"/>
      <point x="176" y="-17"/>
      <point x="54" y="121"/>
      <point x="54" y="435" type="curve" smooth="yes"/>
      <point x="54" y="500" type="line"/>
      <point x="403" y="500" type="line"/>
      <point x="403" y="361" type="line" smooth="yes"/>
      <point x="403" y="304"/>
      <point x="425" y="281"/>
      <point x="473" y="281" type="curve" smooth="yes"/>
      <point x="515" y="281"/>
      <point x="535" y="310"/>
      <point x="535" y="373" type="curve" smooth="yes"/>
      <point x="535" y="461"/>
      <point x="502" y="523"/>
      <point x="421" y="587" type="curve" smooth="yes"/>
      <point x="422" y="584"/>
      <point x="222" y="758"/>
      <point x="228" y="751" type="curve" smooth="yes"/>
      <point x="110" y="848"/>
      <point x="63" y="955"/>
    </contour>
  </outline>
</glyph>
<glyph name="t" format="1">
  <advance width="723"/>
  <unicode hex="0074"/>
  <outline>
    <contour>
      <point x="138" y="1763" type="line"/>
      <point x="523" y="1763" type="line"/>
      <point x="523" y="1431" type="line"/>
      <point x="637" y="1431" type="line"/>
      <point x="637" y="1159" type="line"/>
      <point x="523" y="1159" type="line"/>
      <point x="523" y="343" type="line" smooth="yes"/>
      <point x="523" y="282"/>
      <point x="560" y="268"/>
      <point x="648" y="268" type="curve"/>
      <point x="648" y="-12" type="line"/>
      <point x="390" y="-12" type="line" smooth="yes"/>
      <point x="197" y="-12"/>
      <point x="138" y="72"/>
      <point x="138" y="241" type="curve" smooth="yes"/>
      <point x="138" y="1159" type="line"/>
      <point x="46" y="1159" type="line"/>
      <point x="46" y="1431" type="line"/>
      <point x="138" y="1431" type="line"/>
    </contour>
  </outline>
</glyph>
<glyph name="u" format="1">
  <advance width="1108"/>
  <unicode hex="0075"/>
  <outline>
    <contour>
      <point x="629" y="1500" type="line"/>
      <point x="1009" y="1500" type="line"/>
      <point x="1009" y="0" type="line"/>
      <point x="626" y="0" type="line"/>
      <point x="626" y="162" type="line"/>
      <point x="575" y="44"/>
      <point x="532" y="-17"/>
      <point x="395" y="-17" type="curve" smooth="yes"/>
      <point x="129" y="-17"/>
      <point x="96" y="157"/>
      <point x="96" y="396" type="curve" smooth="yes"/>
      <point x="96" y="1500" type="line"/>
      <point x="484" y="1500" type="line"/>
      <point x="484" y="473" type="line" smooth="yes"/>
      <point x="484" y="360"/>
      <point x="464" y="281"/>
      <point x="553" y="281" type="curve" smooth="yes"/>
      <point x="634" y="281"/>
      <point x="626" y="382"/>
      <point x="626" y="457" type="curve" smooth="yes"/>
    </contour>
  </outline>
</glyph>
<glyph name="v" format="1">
  <advance width="1011"/>
  <unicode hex="0076"/>
  <outline>
    <contour>
      <point x="596" y="1500" type="line"/>
      <point x="966" y="1500" type="line"/>
      <point x="753" y="0" type="line"/>
      <point x="260" y="0" type="line"/>
      <point x="43" y="1500" type="line"/>
      <point x="421" y="1500" type="line"/>
      <point x="478" y="808" type="line"/>
      <point x="495" y="441" type="line"/>
      <point x="541" y="441" type="line"/>
      <point x="555" y="809" type="line"/>
    </contour>
  </outline>
</glyph>
<glyph name="w" format="1">
  <advance width="1444"/>
  <unicode hex="0077"/>
  <outline>
    <contour>
      <point x="1075" y="1500" type="line"/>
      <point x="1405" y="1500" type="line"/>
      <point x="1197" y="0" type="line"/>
      <point x="879" y="0" type="line"/>
      <point x="725" y="1033" type="line"/>
      <point x="599" y="0" type="line"/>
      <point x="289" y="0" type="line"/>
      <point x="36" y="1500" type="line"/>
      <point x="361" y="1500" type="line"/>
      <point x="431" y="1271" type="line"/>
      <point x="487" y="879" type="line"/>
      <point x="487" y="879" type="line"/>
      <point x="510" y="1272" type="line"/>
      <point x="539" y="1500" type="line"/>
      <point x="656" y="1500" type="line"/>
      <point x="784" y="1500" type="line"/>
      <point x="889" y="1500" type="line"/>
      <point x="945" y="1264" type="line"/>
      <point x="989" y="879" type="line"/>
      <point x="991" y="879" type="line"/>
      <point x="1030" y="1259" type="line"/>
    </contour>
  </outline>
</glyph>
<glyph name="x" format="1">
  <advance width="1018"/>
  <unicode hex="0078"/>
  <outline>
    <contour>
      <point x="37" y="1500" type="line"/>
      <point x="380" y="1500" type="line"/>
      <point x="526" y="1159" type="line"/>
      <point x="642" y="1500" type="line"/>
      <point x="972" y="1500" type="line"/>
      <point x="694" y="733" type="line"/>
      <point x="997" y="0" type="line"/>
      <point x="641" y="0" type="line"/>
      <point x="498" y="327" type="line"/>
      <point x="383" y="0" type="line"/>
      <point x="20" y="0" type="line"/>
      <point x="317" y="803" type="line"/>
    </contour>
  </outline>
</glyph>
<glyph name="y" format="1">
  <advance width="1005"/>
  <unicode hex="0079"/>
  <outline>
    <contour>
      <point x="624" y="1503" type="line"/>
      <point x="981" y="1503" type="line"/>
      <point x="699" y="-134" type="line"/>
      <point x="683" y="-237"/>
      <point x="625" y="-293"/>
      <point x="502" y="-293" type="curve" smooth="yes"/>
      <point x="58" y="-293" type="line"/>
      <point x="58" y="-54" type="line"/>
      <point x="177" y="-54" type="line" smooth="yes"/>
      <point x="238" y="-54"/>
      <point x="272" y="-44"/>
      <point x="269" y="18" type="curve"/>
      <point x="267" y="27"/>
      <point x="266" y="84"/>
      <point x="264" y="98" type="curve" smooth="yes"/>
      <point x="34" y="1503" type="line"/>
      <point x="392" y="1503" type="line"/>
      <point x="464" y="759" type="line"/>
      <point x="496" y="359" type="line"/>
      <point x="526" y="359" type="line"/>
      <point x="556" y="759" type="line"/>
    </contour>
  </outline>
</glyph>
<glyph name="z" format="1">
  <advance width="852"/>
  <unicode hex="007A"/>
  <outline>
    <contour>
      <point x="101" y="1500" type="line"/>
      <point x="789" y="1500" type="line"/>
      <point x="789" y="1209" type="line"/>
      <point x="467" y="316" type="line"/>
      <point x="781" y="316" type="line"/>
      <point x="781" y="0" type="line"/>
      <point x="76" y="0" type="line"/>
      <point x="76" y="294" type="line"/>
      <point x="406" y="1173" type="line"/>
      <point x="101" y="1173" type="line"/>
    </contour>
  </outline>
</glyph>
<glyph name="braceleft" format="1">
  <advance width="1080"/>
  <unicode hex="007B"/>
  <outline>
    <contour>
      <point x="800" y="1779" type="curve" smooth="yes"/>
      <point x="860" y="1779" type="line"/>
      <point x="860" y="1516" type="line"/>
      <point x="741" y="1516"/>
      <point x="721" y="1482"/>
      <point x="721" y="1428" type="curve" smooth="yes"/>
      <point x="721" y="1282" type="line" smooth="yes"/>
      <point x="721" y="1052"/>
      <point x="687" y="962"/>
      <point x="576" y="928" type="curve"/>
      <point x="687" y="894"/>
      <point x="721" y="804"/>
      <point x="721" y="574" type="curve" smooth="yes"/>
      <point x="721" y="428" type="line" smooth="yes"/>
      <point x="721" y="374"/>
      <point x="741" y="340"/>
      <point x="860" y="340" type="curve"/>
      <point x="860" y="77" type="line"/>
      <point x="800" y="77" type="line" smooth="yes"/>
      <point x="483" y="77"/>
      <point x="340" y="151"/>
      <point x="340" y="415" type="curve" smooth="yes"/>
      <point x="340" y="570" type="line" smooth="yes"/>
      <point x="340" y="693"/>
      <point x="342" y="768"/>
      <point x="201" y="768" type="curve"/>
      <point x="201" y="1088" type="line"/>
      <point x="342" y="1088"/>
      <point x="340" y="1163"/>
      <point x="340" y="1286" type="curve" smooth="yes"/>
      <point x="340" y="1441" type="line" smooth="yes"/>
      <point x="340" y="1705"/>
      <point x="483" y="1779"/>
    </contour>
  </outline>
</glyph>
<glyph name="bar" format="1">
  <advance width="537"/>
  <unicode hex="007C"/>
  <outline>
    <contour>
      <point x="100" y="1915" type="line"/>
      <point x="435" y="1915" type="line"/>
      <point x="435" y="-4" type="line"/>
      <point x="100" y="-4" type="line"/>
    </contour>
  </outline>
</glyph>
<glyph name="braceright" format="1">
  <advance width="1080"/>
  <unicode hex="007D"/>
  <outline>
    <contour>
      <point x="307" y="1779" type="line"/>
      <point x="624" y="1779"/>
      <point x="767" y="1705"/>
      <point x="767" y="1441" type="curve" smooth="yes"/>
      <point x="767" y="1286" type="line" smooth="yes"/>
      <point x="767" y="1163"/>
      <point x="765" y="1088"/>
      <point x="906" y="1088" type="curve"/>
      <point x="906" y="768" type="line"/>
      <point x="765" y="768"/>
      <point x="767" y="693"/>
      <point x="767" y="570" type="curve" smooth="yes"/>
      <point x="767" y="415" type="line" smooth="yes"/>
      <point x="767" y="151"/>
      <point x="624" y="77"/>
      <point x="307" y="77" type="curve" smooth="yes"/>
      <point x="247" y="77" type="line"/>
      <point x="247" y="340" type="line"/>
      <point x="366" y="340"/>
      <point x="386" y="374"/>
      <point x="386" y="428" type="curve" smooth="yes"/>
      <point x="386" y="574" type="line" smooth="yes"/>
      <point x="386" y="804"/>
      <point x="420" y="894"/>
      <point x="534" y="928" type="curve"/>
      <point x="420" y="962"/>
      <point x="386" y="1052"/>
      <point x="386" y="1282" type="curve" smooth="yes"/>
      <point x="386" y="1428" type="line" smooth="yes"/>
      <point x="386" y="1482"/>
      <point x="366" y="1516"/>
      <point x="247" y="1516" type="curve"/>
      <point x="247" y="1779" type="line"/>
    </contour>
  </outline>
</glyph>
<glyph name="asciitilde" format="1">
  <advance width="1117"/>
  <unicode hex="007E"/>
  <outline>
    <contour>
      <point x="735" y="1124" type="curve"/>
      <point x="727" y="1122"/>
      <point x="782" y="1136"/>
      <point x="811" y="1227" type="curve"/>
      <point x="1041" y="1185" type="line"/>
      <point x="1046" y="1214"/>
      <point x="915" y="766"/>
      <point x="770" y="766" type="curve" smooth="yes"/>
      <point x="656" y="766"/>
      <point x="497" y="894"/>
      <point x="391" y="894" type="curve" smooth="yes"/>
      <point x="327" y="894"/>
      <point x="323" y="866"/>
      <point x="296" y="801" type="curve"/>
      <point x="78" y="891" type="line"/>
      <point x="129" y="1106"/>
      <point x="212" y="1239"/>
      <point x="359" y="1239" type="curve" smooth="yes"/>
      <point x="463" y="1239"/>
      <point x="671" y="1124"/>
    </contour>
  </outline>
</glyph>
<glyph name="cent" format="1">
  <advance width="608"/>
  <unicode hex="00A2"/>
  <outline>
    <contour>
      <point x="444" y="1764" type="line"/>
      <point x="557" y="1764" type="line"/>
      <point x="557" y="1507" type="line"/>
      <point x="444" y="1509" type="line"/>
    </contour>
    <contour>
      <point x="444" y="2" type="line"/>
      <point x="557" y="2" type="line"/>
      <point x="557" y="-253" type="line"/>
      <point x="444" y="-253" type="line"/>
    </contour>
    <component base="c"/>
  </outline>
</glyph>
<glyph name="yen" format="1">
  <advance width="944"/>
  <unicode hex="00A5"/>
  <outline>
    <contour>
      <point x="112" y="714" type="line"/>
      <point x="796" y="714" type="line"/>
      <point x="796" y="493" type="line"/>
      <point x="638" y="493" type="line"/>
      <point x="638" y="390" type="line"/>
      <point x="796" y="390" type="line"/>
      <point x="796" y="163" type="line"/>
      <point x="112" y="163" type="line"/>
      <point x="112" y="390" type="line"/>
      <point x="266" y="390" type="line"/>
      <point x="266" y="493" type="line"/>
      <point x="112" y="493" type="line"/>
    </contour>
    <component base="Y"/>
  </outline>
</glyph>
<glyph name="brokenbar" format="1">
  <advance width="620"/>
  <unicode hex="00A6"/>
  <outline>
    <contour>
      <point x="78" y="1763" type="line"/>
      <point x="542" y="1763" type="line"/>
      <point x="542" y="933" type="line"/>
      <point x="78" y="933" type="line"/>
    </contour>
    <contour>
      <point x="78" y="792" type="line"/>
      <point x="542" y="792" type="line"/>
      <point x="542" y="46" type="line"/>
      <point x="78" y="46" type="line"/>
    </contour>
  </outline>
</glyph>
<glyph name="dieresis" format="1">
  <advance width="976"/>
  <unicode hex="00A8"/>
  <outline>
    <contour>
      <point x="537" y="2195" type="line"/>
      <point x="923" y="2195" type="line"/>
      <point x="923" y="1873" type="line"/>
      <point x="537" y="1873" type="line"/>
    </contour>
    <contour>
      <point x="53" y="2195" type="line"/>
      <point x="439" y="2195" type="line"/>
      <point x="439" y="1873" type="line"/>
      <point x="53" y="1873" type="line"/>
    </contour>
  </outline>
</glyph>
<glyph name="copyright" format="1">
  <advance width="1466"/>
  <unicode hex="00A9"/>
  <outline>
    <contour>
      <point x="437" y="966" type="line"/>
      <point x="437" y="1214"/>
      <point x="571" y="1302"/>
      <point x="736" y="1302" type="curve" smooth="yes"/>
      <point x="870" y="1302"/>
      <point x="961" y="1196"/>
      <point x="961" y="1122" type="curve" smooth="yes"/>
      <point x="961" y="899" type="line"/>
      <point x="716" y="899" type="line"/>
      <point x="716" y="988" type="line" smooth="yes"/>
      <point x="716" y="945"/>
      <point x="741" y="1009"/>
      <point x="732" y="1009" type="curve" smooth="yes"/>
      <point x="707" y="1009"/>
      <point x="772" y="947"/>
      <point x="772" y="1001" type="curve" smooth="yes"/>
      <point x="772" y="736" type="line" smooth="yes"/>
      <point x="772" y="784"/>
      <point x="734" y="701"/>
      <point x="732" y="701" type="curve" smooth="yes"/>
      <point x="741" y="701"/>
      <point x="716" y="747"/>
      <point x="716" y="736" type="curve" smooth="yes"/>
      <point x="716" y="885" type="line"/>
      <point x="965" y="885" type="line"/>
      <point x="965" y="680" type="line" smooth="yes"/>
      <point x="965" y="494"/>
      <point x="894" y="421"/>
      <point x="732" y="421" type="curve" smooth="yes"/>
      <point x="593" y="421"/>
      <point x="437" y="504"/>
      <point x="437" y="685" type="curve" smooth="yes"/>
    </contour>
    <contour>
      <point x="60" y="859" type="curve" smooth="yes"/>
      <point x="60" y="1232"/>
      <point x="344" y="1516"/>
      <point x="717" y="1516" type="curve" smooth="yes"/>
      <point x="1090" y="1516"/>
      <point x="1374" y="1232"/>
      <point x="1374" y="859" type="curve" smooth="yes"/>
      <point x="1374" y="486"/>
      <point x="1090" y="202"/>
      <point x="717" y="202" type="curve" smooth="yes"/>
      <point x="344" y="202"/>
      <point x="60" y="486"/>
    </contour>
    <contour>
      <point x="717" y="1387" type="curve" smooth="yes"/>
      <point x="538" y="1387"/>
      <point x="255" y="1206"/>
      <point x="255" y="861" type="curve" smooth="yes"/>
      <point x="255" y="516"/>
      <point x="538" y="331"/>
      <point x="717" y="331" type="curve" smooth="yes"/>
      <point x="896" y="331"/>
      <point x="1179" y="512"/>
      <point x="1179" y="857" type="curve" smooth="yes"/>
      <point x="1179" y="1202"/>
      <point x="896" y="1387"/>
    </contour>
  </outline>
</glyph>
<glyph name="ordfeminine" format="1">
  <advance width="927"/>
  <unicode hex="00AA"/>
  <outline>
    <contour>
      <point x="114" y="937" type="curve"/>
      <point x="114" y="1183"/>
      <point x="236" y="1257"/>
      <point x="483" y="1257" type="curve" smooth="yes"/>
      <point x="670" y="1257"/>
      <point x="833" y="1164"/>
      <point x="833" y="982" type="curve" smooth="yes"/>
      <point x="833" y="57" type="line"/>
      <point x="525" y="57" type="line"/>
      <point x="525" y="187" type="line"/>
      <point x="507" y="115"/>
      <point x="425" y="43"/>
      <point x="346" y="43" type="curve" smooth="yes"/>
      <point x="147" y="43"/>
      <point x="100" y="189"/>
      <point x="96" y="379" type="curve"/>
      <point x="96" y="380" type="line" smooth="yes"/>
      <point x="96" y="727"/>
      <point x="246" y="746"/>
      <point x="521" y="836" type="curve"/>
      <point x="521" y="826" type="line" smooth="yes"/>
      <point x="521" y="885"/>
      <point x="537" y="1021"/>
      <point x="465" y="1021" type="curve" smooth="yes"/>
      <point x="437" y="1021"/>
      <point x="415" y="1007"/>
      <point x="415" y="985" type="curve" smooth="yes"/>
      <point x="415" y="899" type="line"/>
      <point x="117" y="899" type="line"/>
      <point x="114" y="914"/>
      <point x="114" y="913"/>
    </contour>
    <contour>
      <point x="518" y="376" type="curve"/>
      <point x="518" y="661" type="line"/>
      <point x="457" y="641"/>
      <point x="411" y="598"/>
      <point x="411" y="517" type="curve" smooth="yes"/>
      <point x="411" y="370" type="line" smooth="yes"/>
      <point x="411" y="314"/>
      <point x="433" y="281"/>
      <point x="471" y="281" type="curve" smooth="yes"/>
      <point x="514" y="281"/>
      <point x="522" y="331"/>
    </contour>
  </outline>
</glyph>
<glyph name="guillemotleft" format="1">
  <advance width="1304"/>
  <unicode hex="00AB"/>
  <outline>
    <contour>
      <point x="686" y="983" type="line"/>
      <point x="1203" y="1254" type="line"/>
      <point x="1203" y="864" type="line"/>
      <point x="891" y="749" type="line"/>
      <point x="1203" y="625" type="line"/>
      <point x="1203" y="237" type="line"/>
      <point x="686" y="522" type="line"/>
    </contour>
    <contour>
      <point x="100" y="983" type="line"/>
      <point x="617" y="1254" type="line"/>
      <point x="617" y="864" type="line"/>
      <point x="305" y="749" type="line"/>
      <point x="617" y="625" type="line"/>
      <point x="617" y="237" type="line"/>
      <point x="100" y="522" type="line"/>
    </contour>
  </outline>
</glyph>
<glyph name="logicalnot" format="1">
  <advance width="947"/>
  <unicode hex="00AC"/>
  <outline>
    <contour>
      <point x="97" y="979" type="line"/>
      <point x="892" y="979" type="line"/>
      <point x="892" y="439" type="line"/>
      <point x="602" y="439" type="line"/>
      <point x="602" y="637" type="line"/>
      <point x="97" y="637" type="line"/>
    </contour>
  </outline>
</glyph>
<glyph name="macron" format="1">
  <advance width="696"/>
  <unicode hex="00AF"/>
  <outline>
    <contour>
      <point x="90" y="2143" type="line"/>
      <point x="609" y="2143" type="line"/>
      <point x="609" y="1954" type="line"/>
      <point x="90" y="1954" type="line"/>
    </contour>
  </outline>
</glyph>
<glyph name="plusminus" format="1">
  <advance width="854"/>
  <unicode hex="00B1"/>
  <outline>
    <contour>
      <point x="302" y="1044" type="line"/>
      <point x="552" y="1044" type="line"/>
      <point x="552" y="843" type="line"/>
      <point x="756" y="843" type="line"/>
      <point x="756" y="592" type="line"/>
      <point x="552" y="592" type="line"/>
      <point x="552" y="393" type="line"/>
      <point x="302" y="393" type="line"/>
      <point x="302" y="592" type="line"/>
      <point x="96" y="592" type="line"/>
      <point x="96" y="843" type="line"/>
      <point x="302" y="843" type="line"/>
    </contour>
    <contour>
      <point x="138" y="211" type="line"/>
      <point x="654" y="211" type="line"/>
      <point x="654" y="-40" type="line"/>
      <point x="138" y="-40" type="line"/>
    </contour>
  </outline>
</glyph>
<glyph name="uni00B2" format="1">
  <advance width="801"/>
  <unicode hex="00B2"/>
  <outline>
    <contour>
      <point x="102" y="1424" type="line"/>
      <point x="102" y="1663"/>
      <point x="171" y="1782"/>
      <point x="405" y="1782" type="curve" smooth="yes"/>
      <point x="593" y="1782"/>
      <point x="713" y="1689"/>
      <point x="713" y="1496" type="curve" smooth="yes"/>
      <point x="713" y="1213"/>
      <point x="508" y="1113"/>
      <point x="399" y="942" type="curve"/>
      <point x="706" y="942" type="line"/>
      <point x="706" y="715" type="line"/>
      <point x="103" y="715" type="line"/>
      <point x="103" y="767" type="line" smooth="yes"/>
      <point x="103" y="1029"/>
      <point x="230" y="1106"/>
      <point x="404" y="1320" type="curve"/>
      <point x="442" y="1364"/>
      <point x="461" y="1413"/>
      <point x="461" y="1489" type="curve" smooth="yes"/>
      <point x="461" y="1527"/>
      <point x="442" y="1559"/>
      <point x="405" y="1559" type="curve" smooth="yes"/>
      <point x="369" y="1559"/>
      <point x="355" y="1528"/>
      <point x="355" y="1488" type="curve" smooth="yes"/>
      <point x="355" y="1358" type="line"/>
      <point x="105" y="1358" type="line"/>
    </contour>
  </outline>
</glyph>
<glyph name="uni00B3" format="1">
  <advance width="832"/>
  <unicode hex="00B3"/>
  <outline>
    <contour>
      <point x="90" y="1389" type="line"/>
      <point x="90" y="975"/>
      <point x="-41" y="868"/>
      <point x="-387" y="868" type="curve" smooth="yes"/>
      <point x="-722" y="1492"/>
      <point x="-643" y="1992"/>
      <point x="-58" y="2400" type="curve" smooth="yes"/>
      <point x="512" y="2662"/>
      <point x="842" y="2552"/>
      <point x="1016" y="2010" type="curve"/>
      <point x="834" y="1724"/>
      <point x="679" y="1695"/>
      <point x="412" y="1879" type="curve" smooth="yes"/>
      <point x="709" y="2205"/>
      <point x="927" y="2125"/>
      <point x="1279" y="1693" type="curve" smooth="yes"/>
      <point x="1625" y="1018"/>
      <point x="1499" y="446"/>
      <point x="878" y="2" type="curve" smooth="yes"/>
      <point x="296" y="2"/>
      <point x="80" y="215"/>
      <point x="80" y="869" type="curve"/>
      <point x="-204" y="1103" type="line"/>
      <point x="354" y="1211" type="line" smooth="yes"/>
      <point x="354" y="1531"/>
      <point x="328" y="1400"/>
      <point x="162" y="1400" type="curve" smooth="yes"/>
      <point x="-4" y="1037"/>
      <point x="-1" y="764"/>
      <point x="224" y="446" type="curve" smooth="yes"/>
      <point x="452" y="96"/>
      <point x="553" y="158"/>
      <point x="753" y="542" type="curve" smooth="yes"/>
      <point x="753" y="962"/>
      <point x="739" y="1175"/>
      <point x="439" y="1175" type="curve"/>
      <point x="352" y="949" type="line"/>
      <point x="296" y="1369" type="line"/>
      <point x="104" y="1367"/>
      <point x="106" y="1303"/>
      <point x="106" y="957" type="curve" smooth="yes"/>
      <point x="385" y="649"/>
      <point x="573" y="701"/>
      <point x="687" y="1100" type="curve" smooth="yes"/>
      <point x="809" y="1466"/>
      <point x="767" y="1641"/>
      <point x="614" y="1947" type="curve" smooth="yes"/>
      <point x="425" y="1947"/>
      <point x="368" y="1868"/>
      <point x="368" y="1529" type="curve"/>
      <point x="368" y="1511"/>
      <point x="651" y="1463"/>
      <point x="651" y="1445" type="curve"/>
    </contour>
  </outline>
</glyph>
<glyph name="acute" format="1">
  <advance width="816"/>
  <unicode hex="00B4"/>
  <outline>
    <contour>
      <point x="-251" y="2607" type="line"/>
      <point x="-29" y="3075" type="line"/>
      <point x="1122" y="2813" type="line"/>
      <point x="724" y="2039" type="line"/>
    </contour>
  </outline>
</glyph>
<glyph name="paragraph" format="1">
  <advance width="1229"/>
  <unicode hex="00B6"/>
  <outline>
    <contour>
      <point x="689" y="1761" type="curve" smooth="yes"/>
      <point x="1079" y="1761" type="line"/>
      <point x="1079" y="0" type="line"/>
      <point x="853" y="0" type="line"/>
      <point x="853" y="1431" type="line"/>
      <point x="710" y="1431" type="line"/>
      <point x="710" y="0" type="line"/>
      <point x="484" y="0" type="line"/>
      <point x="484" y="991" type="line"/>
      <point x="240" y="1018"/>
      <point x="131" y="1125"/>
      <point x="131" y="1399" type="curve" smooth="yes"/>
      <point x="131" y="1716"/>
      <point x="396" y="1761"/>
    </contour>
  </outline>
</glyph>
<glyph name="periodcentered" format="1">
  <advance width="480"/>
  <unicode hex="00B7"/>
  <outline>
    <contour>
      <point x="100" y="1031" type="line"/>
      <point x="393" y="1031" type="line"/>
      <point x="393" y="712" type="line"/>
      <point x="100" y="712" type="line"/>
    </contour>
  </outline>
</glyph>
<glyph name="cedilla" format="1">
  <advance width="2355"/>
  <unicode hex="00B8"/>
  <outline>
    <contour>
      <point x="978" y="0" type="line"/>
      <point x="1086" y="0" type="line"/>
      <point x="1107" y="-135" type="line"/>
      <point x="1282" y="-175"/>
      <point x="1385" y="-282"/>
      <point x="1385" y="-418" type="curve" smooth="yes"/>
      <point x="1385" y="-552"/>
      <point x="1291" y="-680"/>
      <point x="1080" y="-680" type="curve" smooth="yes"/>
      <point x="1006" y="-680"/>
      <point x="934" y="-668"/>
      <point x="867" y="-638" type="curve"/>
      <point x="867" y="-501" type="line"/>
      <point x="1056" y="-501"/>
      <point x="1098" y="-434"/>
      <point x="1098" y="-359" type="curve" smooth="yes"/>
      <point x="1098" y="-269"/>
      <point x="1020" y="-214"/>
      <point x="938" y="-196" type="curve"/>
    </contour>
  </outline>
</glyph>
<glyph name="uni00B9" format="1">
  <advance width="630"/>
  <unicode hex="00B9"/>
  <outline>
    <contour>
      <point x="281" y="1759" type="curve"/>
      <point x="514" y="1759" type="line"/>
      <point x="514" y="718" type="line"/>
      <point x="208" y="718" type="line"/>
      <point x="208" y="1470" type="line"/>
      <point x="157" y="1450"/>
      <point x="106" y="1439"/>
      <point x="48" y="1439" type="curve"/>
      <point x="48" y="1627" type="line"/>
      <point x="124" y="1627"/>
      <point x="287" y="1693"/>
    </contour>
  </outline>
</glyph>
<glyph name="ordmasculine" format="1">
  <advance width="1066"/>
  <unicode hex="00BA"/>
  <outline>
    <contour>
      <point x="185" y="890" type="line"/>
      <point x="185" y="1109"/>
      <point x="318" y="1254"/>
      <point x="558" y="1254" type="curve" smooth="yes"/>
      <point x="818" y="1254"/>
      <point x="932" y="1114"/>
      <point x="932" y="890" type="curve" smooth="yes"/>
      <point x="932" y="400" type="line" smooth="yes"/>
      <point x="932" y="159"/>
      <point x="798" y="39"/>
      <point x="558" y="39" type="curve" smooth="yes"/>
      <point x="319" y="39"/>
      <point x="185" y="154"/>
      <point x="185" y="400" type="curve" smooth="yes"/>
    </contour>
    <contour>
      <point x="619" y="938" type="line"/>
      <point x="619" y="994"/>
      <point x="595" y="1015"/>
      <point x="558" y="1015" type="curve" smooth="yes"/>
      <point x="524" y="1015"/>
      <point x="501" y="994"/>
      <point x="501" y="938" type="curve" smooth="yes"/>
      <point x="501" y="339" type="line" smooth="yes"/>
      <point x="501" y="300"/>
      <point x="538" y="278"/>
      <point x="558" y="275" type="curve"/>
      <point x="583" y="274"/>
      <point x="619" y="290"/>
      <point x="619" y="339" type="curve" smooth="yes"/>
    </contour>
  </outline>
</glyph>
<glyph name="guillemotright" format="1">
  <advance width="1304"/>
  <unicode hex="00BB"/>
  <outline>
    <contour>
      <point x="692" y="864" type="line"/>
      <point x="692" y="1254" type="line"/>
      <point x="1209" y="983" type="line"/>
      <point x="1209" y="522" type="line"/>
      <point x="692" y="237" type="line"/>
      <point x="692" y="625" type="line"/>
      <point x="1004" y="749" type="line"/>
    </contour>
    <contour>
      <point x="109" y="864" type="line"/>
      <point x="109" y="1254" type="line"/>
      <point x="623" y="983" type="line"/>
      <point x="623" y="522" type="line"/>
      <point x="109" y="237" type="line"/>
      <point x="109" y="625" type="line"/>
      <point x="421" y="749" type="line"/>
    </contour>
  </outline>
</glyph>
<glyph name="onequarter" format="1">
  <advance width="1535"/>
  <unicode hex="00BC"/>
  <outline>
    <contour>
      <point x="877" y="1781" type="line"/>
      <point x="1178" y="1781" type="line"/>
      <point x="636" y="0" type="line"/>
      <point x="335" y="0" type="line"/>
    </contour>
    <contour>
      <point x="246" y="1520" type="curve"/>
      <point x="442" y="1520" type="line"/>
      <point x="442" y="625" type="line"/>
      <point x="196" y="625" type="line"/>
      <point x="196" y="1268" type="line"/>
      <point x="157" y="1251"/>
      <point x="121" y="1241"/>
      <point x="80" y="1241" type="curve"/>
      <point x="80" y="1406" type="line"/>
      <point x="134" y="1406"/>
      <point x="254" y="1462"/>
    </contour>
    <contour>
      <point x="1061" y="901" type="line"/>
      <point x="1418" y="901" type="line"/>
      <point x="1418" y="322" type="line"/>
      <point x="1445" y="322" type="line"/>
      <point x="1445" y="138" type="line"/>
      <point x="1418" y="138" type="line"/>
      <point x="1418" y="0" type="line"/>
      <point x="1193" y="0" type="line"/>
      <point x="1193" y="138" type="line"/>
      <point x="888" y="138" type="line"/>
      <point x="888" y="298" type="line"/>
    </contour>
    <contour>
      <point x="1193" y="322" type="line"/>
      <point x="1193" y="736" type="line"/>
      <point x="1094" y="322" type="line"/>
    </contour>
  </outline>
</glyph>
<glyph name="onehalf" format="1">
  <advance width="1620"/>
  <unicode hex="00BD"/>
  <outline>
    <contour>
      <point x="978" y="611" type="line"/>
      <point x="978" y="819"/>
      <point x="1042" y="918"/>
      <point x="1248" y="918" type="curve" smooth="yes"/>
      <point x="1412" y="918"/>
      <point x="1523" y="839"/>
      <point x="1523" y="672" type="curve" smooth="yes"/>
      <point x="1523" y="428"/>
      <point x="1343" y="346"/>
      <point x="1245" y="198" type="curve"/>
      <point x="1519" y="198" type="line"/>
      <point x="1519" y="0" type="line"/>
      <point x="979" y="0" type="line"/>
      <point x="979" y="44" type="line" smooth="yes"/>
      <point x="979" y="276"/>
      <point x="1091" y="333"/>
      <point x="1247" y="524" type="curve"/>
      <point x="1279" y="559"/>
      <point x="1297" y="602"/>
      <point x="1297" y="668" type="curve" smooth="yes"/>
      <point x="1297" y="696"/>
      <point x="1281" y="724"/>
      <point x="1250" y="724" type="curve" smooth="yes"/>
      <point x="1219" y="724"/>
      <point x="1205" y="694"/>
      <point x="1205" y="664" type="curve" smooth="yes"/>
      <point x="1205" y="555" type="line"/>
      <point x="981" y="555" type="line"/>
    </contour>
    <contour>
      <point x="246" y="1520" type="curve"/>
      <point x="442" y="1520" type="line"/>
      <point x="442" y="625" type="line"/>
      <point x="196" y="625" type="line"/>
      <point x="196" y="1268" type="line"/>
      <point x="157" y="1251"/>
      <point x="121" y="1241"/>
      <point x="80" y="1241" type="curve"/>
      <point x="80" y="1406" type="line"/>
      <point x="134" y="1406"/>
      <point x="254" y="1462"/>
    </contour>
    <contour>
      <point x="857" y="1781" type="line"/>
      <point x="1158" y="1781" type="line"/>
      <point x="616" y="0" type="line"/>
      <point x="315" y="0" type="line"/>
    </contour>
  </outline>
</glyph>
<glyph name="threequarters" format="1">
  <advance width="1555"/>
  <unicode hex="00BE"/>
  <outline>
    <contour>
      <point x="18" y="1262" type="line"/>
      <point x="18" y="1439"/>
      <point x="105" y="1509"/>
      <point x="281" y="1509" type="curve" smooth="yes"/>
      <point x="450" y="1509"/>
      <point x="539" y="1425"/>
      <point x="539" y="1262" type="curve" smooth="yes"/>
      <point x="539" y="1176"/>
      <point x="520" y="1119"/>
      <point x="452" y="1097" type="curve"/>
      <point x="535" y="1058"/>
      <point x="542" y="1002"/>
      <point x="542" y="871" type="curve" smooth="yes"/>
      <point x="542" y="685"/>
      <point x="463" y="576"/>
      <point x="268" y="576" type="curve" smooth="yes"/>
      <point x="92" y="576"/>
      <point x="11" y="666"/>
      <point x="11" y="835" type="curve" smooth="yes"/>
      <point x="11" y="945" type="line"/>
      <point x="227" y="945" type="line"/>
      <point x="227" y="835" type="line" smooth="yes"/>
      <point x="227" y="805"/>
      <point x="236" y="769"/>
      <point x="278" y="769" type="curve" smooth="yes"/>
      <point x="324" y="769"/>
      <point x="319" y="819"/>
      <point x="319" y="870" type="curve" smooth="yes"/>
      <point x="319" y="928"/>
      <point x="318" y="1003"/>
      <point x="244" y="1003" type="curve" smooth="yes"/>
      <point x="232" y="1003"/>
      <point x="234" y="1003"/>
      <point x="225" y="1000" type="curve"/>
      <point x="225" y="1186" type="line"/>
      <point x="236" y="1186" type="line"/>
      <point x="290" y="1190"/>
      <point x="323" y="1214"/>
      <point x="323" y="1259" type="curve" smooth="yes"/>
      <point x="323" y="1292"/>
      <point x="309" y="1319"/>
      <point x="283" y="1319" type="curve" smooth="yes"/>
      <point x="234" y="1319"/>
      <point x="238" y="1279"/>
      <point x="238" y="1256" type="curve"/>
      <point x="238" y="1241"/>
      <point x="237" y="1241"/>
      <point x="237" y="1226" type="curve"/>
      <point x="18" y="1226" type="line"/>
    </contour>
    <contour>
      <point x="1030" y="1781" type="line"/>
      <point x="1331" y="1781" type="line"/>
      <point x="789" y="0" type="line"/>
      <point x="488" y="0" type="line"/>
    </contour>
    <contour>
      <point x="1121" y="901" type="line"/>
      <point x="1478" y="901" type="line"/>
      <point x="1478" y="322" type="line"/>
      <point x="1505" y="322" type="line"/>
      <point x="1505" y="138" type="line"/>
      <point x="1478" y="138" type="line"/>
      <point x="1478" y="0" type="line"/>
      <point x="1253" y="0" type="line"/>
      <point x="1253" y="138" type="line"/>
      <point x="948" y="138" type="line"/>
      <point x="948" y="298" type="line"/>
    </contour>
    <contour>
      <point x="1253" y="322" type="line"/>
      <point x="1253" y="736" type="line"/>
      <point x="1154" y="322" type="line"/>
    </contour>
  </outline>
</glyph>
<glyph name="AE" format="1">
  <advance width="1326"/>
  <unicode hex="00C6"/>
  <outline>
    <contour>
      <point x="260" y="1763" type="line"/>
      <point x="1246" y="1763" type="line"/>
      <point x="1246" y="1411" type="line"/>
      <point x="1016" y="1411" type="line"/>
      <point x="1016" y="1079" type="line"/>
      <point x="1232" y="1079" type="line"/>
      <point x="1232" y="731" type="line"/>
      <point x="1016" y="731" type="line"/>
      <point x="1016" y="349" type="line"/>
      <point x="1274" y="349" type="line"/>
      <point x="1274" y="0" type="line"/>
      <point x="626" y="0" type="line"/>
      <point x="626" y="270" type="line"/>
      <point x="440" y="270" type="line"/>
      <point x="408" y="0" type="line"/>
      <point x="24" y="0" type="line"/>
    </contour>
    <contour>
      <point x="626" y="542" type="line"/>
      <point x="626" y="1410" type="line"/>
      <point x="573" y="1409" type="line"/>
      <point x="470" y="542" type="line"/>
    </contour>
  </outline>
</glyph>
<glyph name="multiply" format="1">
  <advance width="710"/>
  <unicode hex="00D7"/>
  <outline>
    <contour>
      <point x="438" y="936" type="line"/>
      <point x="730" y="652" type="line"/>
      <point x="641" y="565" type="line"/>
      <point x="730" y="478" type="line"/>
      <point x="438" y="194" type="line"/>
      <point x="355" y="279" type="line"/>
      <point x="272" y="194" type="line"/>
      <point x="-20" y="478" type="line"/>
      <point x="69" y="565" type="line"/>
      <point x="-20" y="652" type="line"/>
      <point x="272" y="936" type="line"/>
      <point x="355" y="851" type="line"/>
    </contour>
  </outline>
</glyph>
<glyph name="Thorn" format="1">
  <advance width="1092"/>
  <unicode hex="00DE"/>
  <outline>
    <contour>
      <point x="114" y="1763" type="line"/>
      <point x="506" y="1763" type="line"/>
      <point x="506" y="1493" type="line"/>
      <point x="620" y="1493" type="line" smooth="yes"/>
      <point x="900" y="1493"/>
      <point x="1026" y="1330"/>
      <point x="1036" y="969" type="curve"/>
      <point x="1036" y="933" type="line" smooth="yes"/>
      <point x="1036" y="618"/>
      <point x="945" y="380"/>
      <point x="647" y="380" type="curve" smooth="yes"/>
      <point x="506" y="380" type="line"/>
      <point x="506" y="0" type="line"/>
      <point x="114" y="0" type="line"/>
    </contour>
    <contour>
      <point x="644" y="949" type="line"/>
      <point x="644" y="1087"/>
      <point x="634" y="1200"/>
      <point x="526" y="1200" type="curve" smooth="yes"/>
      <point x="506" y="1200" type="line"/>
      <point x="506" y="702" type="line"/>
      <point x="528" y="702" type="line" smooth="yes"/>
      <point x="640" y="702"/>
      <point x="644" y="791"/>
      <point x="644" y="937" type="curve" smooth="yes"/>
    </contour>
  </outline>
</glyph>
<glyph name="germandbls" format="1">
  <advance width="1134"/>
  <unicode hex="00DF"/>
  <outline>
    <contour>
      <point x="117" y="1417" type="line"/>
      <point x="117" y="1660"/>
      <point x="302" y="1781"/>
      <point x="585" y="1781" type="curve" smooth="yes"/>
      <point x="842" y="1781"/>
      <point x="1026" y="1676"/>
      <point x="1026" y="1417" type="curve" smooth="yes"/>
      <point x="1026" y="1220" type="line" smooth="yes"/>
      <point x="1026" y="1086"/>
      <point x="981" y="977"/>
      <point x="875" y="945" type="curve"/>
      <point x="1041" y="907"/>
      <point x="1086" y="741"/>
      <point x="1086" y="553" type="curve" smooth="yes"/>
      <point x="1086" y="476" type="line" smooth="yes"/>
      <point x="1086" y="177"/>
      <point x="971" y="0"/>
      <point x="671" y="0" type="curve" smooth="yes"/>
      <point x="567" y="0" type="line"/>
      <point x="567" y="300" type="line"/>
      <point x="641" y="300"/>
      <point x="707" y="340"/>
      <point x="707" y="395" type="curve" smooth="yes"/>
      <point x="707" y="656" type="line" smooth="yes"/>
      <point x="707" y="755"/>
      <point x="672" y="794"/>
      <point x="576" y="794" type="curve"/>
      <point x="576" y="1058" type="line"/>
      <point x="634" y="1058"/>
      <point x="643" y="1112"/>
      <point x="643" y="1170" type="curve" smooth="yes"/>
      <point x="643" y="1374" type="line" smooth="yes"/>
      <point x="643" y="1410"/>
      <point x="620" y="1432"/>
      <point x="583" y="1432" type="curve" smooth="yes"/>
      <point x="543" y="1432"/>
      <point x="504" y="1410"/>
      <point x="504" y="1374" type="curve" smooth="yes"/>
      <point x="504" y="0" type="line"/>
      <point x="117" y="0" type="line"/>
    </contour>
  </outline>
</glyph>
<glyph name="ae" format="1">
  <advance width="1617"/>
  <unicode hex="00E6"/>
  <outline>
    <contour>
      <point x="808" y="1391" type="curve"/>
      <point x="862" y="1474"/>
      <point x="952" y="1518"/>
      <point x="1081" y="1518" type="curve" smooth="yes"/>
      <point x="1371" y="1518"/>
      <point x="1535" y="1390"/>
      <point x="1535" y="1107" type="curve"/>
      <point x="1535" y="1107"/>
      <point x="1535" y="756"/>
      <point x="1531" y="698" type="curve"/>
      <point x="996" y="698" type="line"/>
      <point x="996" y="502" type="line" smooth="yes"/>
      <point x="996" y="357"/>
      <point x="1026" y="282"/>
      <point x="1075" y="282" type="curve" smooth="yes"/>
      <point x="1155" y="282"/>
      <point x="1153" y="417"/>
      <point x="1153" y="490" type="curve" smooth="yes"/>
      <point x="1153" y="580"/>
      <point x="1150" y="574"/>
      <point x="1150" y="583" type="curve"/>
      <point x="1535" y="583" type="line"/>
      <point x="1535" y="493" type="line" smooth="yes"/>
      <point x="1535" y="166"/>
      <point x="1436" y="-18"/>
      <point x="1105" y="-18" type="curve" smooth="yes"/>
      <point x="965" y="-18"/>
      <point x="854" y="59"/>
      <point x="814" y="154" type="curve"/>
      <point x="765" y="50"/>
      <point x="665" y="-19"/>
      <point x="506" y="-19" type="curve" smooth="yes"/>
      <point x="223" y="-19"/>
      <point x="69" y="156"/>
      <point x="69" y="438" type="curve" smooth="yes"/>
      <point x="69" y="444" type="line"/>
      <point x="80" y="848"/>
      <point x="265" y="872"/>
      <point x="604" y="983" type="curve"/>
      <point x="604" y="983"/>
      <point x="607" y="988"/>
      <point x="604" y="1057" type="curve"/>
      <point x="603" y="1111"/>
      <point x="585" y="1218"/>
      <point x="536" y="1218" type="curve" smooth="yes"/>
      <point x="497" y="1218"/>
      <point x="469" y="1201"/>
      <point x="469" y="1173" type="curve" smooth="yes"/>
      <point x="469" y="1062" type="line"/>
      <point x="94" y="1062" type="line"/>
      <point x="91" y="1080"/>
      <point x="91" y="1081"/>
      <point x="91" y="1111" type="curve" smooth="yes"/>
      <point x="91" y="1421"/>
      <point x="243" y="1518"/>
      <point x="553" y="1518" type="curve" smooth="yes"/>
      <point x="664" y="1518"/>
      <point x="750" y="1475"/>
    </contour>
    <contour>
      <point x="603" y="404" type="curve"/>
      <point x="603" y="765" type="line"/>
      <point x="525" y="735"/>
      <point x="465" y="686"/>
      <point x="465" y="578" type="curve" smooth="yes"/>
      <point x="465" y="397" type="line" smooth="yes"/>
      <point x="465" y="323"/>
      <point x="494" y="285"/>
      <point x="540" y="285" type="curve" smooth="yes"/>
      <point x="594" y="285"/>
      <point x="605" y="344"/>
    </contour>
    <contour>
      <point x="1150" y="1091" type="line"/>
      <point x="1150" y="1183"/>
      <point x="1120" y="1229"/>
      <point x="1077" y="1229" type="curve" smooth="yes"/>
      <point x="994" y="1229"/>
      <point x="996" y="1152"/>
      <point x="996" y="1051" type="curve" smooth="yes"/>
      <point x="996" y="940" type="line"/>
      <point x="1150" y="940" type="line"/>
    </contour>
  </outline>
</glyph>
<glyph name="eth" format="1">
  <advance width="1103"/>
  <unicode hex="00F0"/>
  <outline>
    <contour>
      <point x="243" y="1620" type="curve"/>
      <point x="520" y="1783" type="line"/>
      <point x="570" y="1747"/>
      <point x="630" y="1697"/>
      <point x="695" y="1635" type="curve"/>
      <point x="892" y="1735" type="line"/>
      <point x="972" y="1560" type="line"/>
      <point x="813" y="1480" type="line"/>
      <point x="924" y="1306"/>
      <point x="1005" y="1122"/>
      <point x="1005" y="753" type="curve" smooth="yes"/>
      <point x="1005" y="549" type="line" smooth="yes"/>
      <point x="1005" y="134"/>
      <point x="931" y="-23"/>
      <point x="551" y="-23" type="curve" smooth="yes"/>
      <point x="198" y="-23"/>
      <point x="77" y="160"/>
      <point x="77" y="525" type="curve" smooth="yes"/>
      <point x="77" y="616" type="line" smooth="yes"/>
      <point x="77" y="911"/>
      <point x="199" y="1091"/>
      <point x="447" y="1092" type="curve" smooth="yes"/>
      <point x="542" y="1093"/>
      <point x="563" y="1082"/>
      <point x="591" y="1076" type="curve"/>
      <point x="591" y="1173"/>
      <point x="562" y="1219"/>
      <point x="503" y="1320" type="curve"/>
      <point x="310" y="1224" type="line"/>
      <point x="233" y="1399" type="line"/>
      <point x="384" y="1475" type="line"/>
      <point x="346" y="1517"/>
      <point x="297" y="1569"/>
    </contour>
    <contour>
      <point x="613" y="620" type="line"/>
      <point x="617" y="729"/>
      <point x="596" y="765"/>
      <point x="538" y="765" type="curve" smooth="yes"/>
      <point x="491" y="765"/>
      <point x="467" y="731"/>
      <point x="467" y="683" type="curve" smooth="yes"/>
      <point x="467" y="422" type="line" smooth="yes"/>
      <point x="467" y="362"/>
      <point x="491" y="320"/>
      <point x="547" y="320" type="curve" smooth="yes"/>
      <point x="594" y="320"/>
      <point x="613" y="345"/>
      <point x="613" y="406" type="curve" smooth="yes"/>
    </contour>
  </outline>
</glyph>
<glyph name="divide" format="1">
  <advance width="804"/>
  <unicode hex="00F7"/>
  <outline>
    <contour>
      <point x="94" y="934" type="line"/>
      <point x="710" y="934" type="line"/>
      <point x="710" y="572" type="line"/>
      <point x="94" y="572" type="line"/>
    </contour>
    <contour>
      <point x="153" y="615" type="line"/>
      <point x="651" y="615" type="line"/>
      <point x="651" y="317" type="line"/>
      <point x="153" y="317" type="line"/>
    </contour>
    <contour>
      <point x="153" y="1194" type="line"/>
      <point x="651" y="1194" type="line"/>
      <point x="651" y="896" type="line"/>
      <point x="153" y="896" type="line"/>
    </contour>
  </outline>
</glyph>
<glyph name="oslash" format="1">
  <advance width="879"/>
  <unicode hex="00F8"/>
  <outline>
    <contour>
      <point x="236" y="-145" type="line"/>
      <point x="745" y="1672" type="line"/>
      <point x="846" y="1644" type="line"/>
      <point x="336" y="-173" type="line"/>
    </contour>
    <component base="o"/>
  </outline>
</glyph>
<glyph name="thorn" format="1">
  <advance width="1122"/>
  <unicode hex="00FE"/>
  <outline>
    <contour>
      <point x="105" y="1767" type="line"/>
      <point x="491" y="1767" type="line"/>
      <point x="491" y="1345" type="line"/>
      <point x="528" y="1443"/>
      <point x="628" y="1519"/>
      <point x="718" y="1519" type="curve" smooth="yes"/>
      <point x="974" y="1519"/>
      <point x="1027" y="1326"/>
      <point x="1027" y="1084" type="curve" smooth="yes"/>
      <point x="1027" y="529" type="line" smooth="yes"/>
      <point x="1027" y="230"/>
      <point x="1012" y="-18"/>
      <point x="706" y="-18" type="curve" smooth="yes"/>
      <point x="612" y="-18"/>
      <point x="541" y="25"/>
      <point x="491" y="73" type="curve"/>
      <point x="491" y="-307" type="line"/>
      <point x="105" y="-307" type="line"/>
    </contour>
    <contour>
      <point x="644" y="1077" type="line"/>
      <point x="644" y="1137"/>
      <point x="637" y="1213"/>
      <point x="567" y="1213" type="curve" smooth="yes"/>
      <point x="516" y="1213"/>
      <point x="491" y="1158"/>
      <point x="491" y="1080" type="curve" smooth="yes"/>
      <point x="491" y="416" type="line" smooth="yes"/>
      <point x="491" y="352"/>
      <point x="504" y="284"/>
      <point x="571" y="284" type="curve"/>
      <point x="638" y="282"/>
      <point x="644" y="364"/>
      <point x="644" y="433" type="curve" smooth="yes"/>
    </contour>
  </outline>
</glyph>
<glyph name="Hbar" format="1">
  <advance width="1152"/>
  <unicode hex="0126"/>
  <outline>
    <contour>
      <point x="55" y="1519" type="line"/>
      <point x="1113" y="1519" type="line"/>
      <point x="1113" y="1338" type="line"/>
      <point x="55" y="1338" type="line"/>
    </contour>
    <component base="H"/>
  </outline>
</glyph>
<glyph name="hbar" format="1">
  <advance width="1110"/>
  <unicode hex="0127"/>
  <outline>
    <contour>
      <point x="0" y="1722" type="line"/>
      <point x="867" y="1722" type="line"/>
      <point x="867" y="1627" type="line"/>
      <point x="0" y="1627" type="line"/>
    </contour>
    <component base="h"/>
  </outline>
</glyph>
<glyph name="dotlessi" format="1">
  <advance width="603"/>
  <unicode hex="0131"/>
  <outline>
    <contour>
      <point x="110" y="1500" type="line"/>
      <point x="493" y="1500" type="line"/>
      <point x="493" y="0" type="line"/>
      <point x="110" y="0" type="line"/>
    </contour>
  </outline>
</glyph>
<glyph name="kgreenlandic" format="1">
  <advance width="1079"/>
  <unicode hex="0138"/>
  <outline>
    <contour>
      <point x="102" y="1497" type="line"/>
      <point x="487" y="1497" type="line"/>
      <point x="487" y="880" type="line"/>
      <point x="665" y="1500" type="line"/>
      <point x="1058" y="1500" type="line"/>
      <point x="823" y="768" type="line"/>
      <point x="1075" y="0" type="line"/>
      <point x="687" y="0" type="line"/>
      <point x="487" y="679" type="line"/>
      <point x="487" y="0" type="line"/>
      <point x="102" y="0" type="line"/>
    </contour>
  </outline>
</glyph>
<glyph name="Lslash" format="1">
  <advance width="886"/>
  <unicode hex="0141"/>
  <outline>
    <contour>
      <point x="-1" y="916" type="line"/>
      <point x="737" y="1157" type="line"/>
      <point x="737" y="909" type="line"/>
      <point x="-1" y="668" type="line"/>
    </contour>
    <component base="L"/>
  </outline>
</glyph>
<glyph name="lslash" format="1">
  <advance width="562"/>
  <unicode hex="0142"/>
  <outline>
    <contour>
      <point x="-3" y="921" type="line"/>
      <point x="571" y="1153" type="line"/>
      <point x="571" y="908" type="line"/>
      <point x="-3" y="676" type="line"/>
    </contour>
    <component base="l" xOffset="-13"/>
  </outline>
</glyph>
<glyph name="OE" format="1">
  <advance width="1277"/>
  <unicode hex="0152"/>
  <outline>
    <contour>
      <point x="544" y="1763" type="curve" smooth="yes"/>
      <point x="1199" y="1763" type="line"/>
      <point x="1199" y="1411" type="line"/>
      <point x="998" y="1411" type="line"/>
      <point x="998" y="1079" type="line"/>
      <point x="1185" y="1079" type="line"/>
      <point x="1185" y="731" type="line"/>
      <point x="998" y="731" type="line"/>
      <point x="998" y="349" type="line"/>
      <point x="1225" y="349" type="line"/>
      <point x="1225" y="0" type="line"/>
      <point x="545" y="0" type="line" smooth="yes"/>
      <point x="254" y="0"/>
      <point x="82" y="163"/>
      <point x="82" y="468" type="curve" smooth="yes"/>
      <point x="82" y="1321" type="line" smooth="yes"/>
      <point x="82" y="1624"/>
      <point x="262" y="1763"/>
    </contour>
    <contour>
      <point x="606" y="343" type="line"/>
      <point x="606" y="1410" type="line"/>
      <point x="544" y="1410" type="line" smooth="yes"/>
      <point x="488" y="1410"/>
      <point x="472" y="1375"/>
      <point x="472" y="1329" type="curve" smooth="yes"/>
      <point x="472" y="463" type="line" smooth="yes"/>
      <point x="472" y="404"/>
      <point x="473" y="344"/>
      <point x="545" y="343" type="curve"/>
    </contour>
  </outline>
</glyph>
<glyph name="oe" format="1">
  <advance width="1637"/>
  <unicode hex="0153"/>
  <outline>
    <contour>
      <point x="825" y="1424" type="curve"/>
      <point x="897" y="1490"/>
      <point x="990" y="1518"/>
      <point x="1101" y="1518" type="curve" smooth="yes"/>
      <point x="1393" y="1518"/>
      <point x="1555" y="1390"/>
      <point x="1555" y="1107" type="curve"/>
      <point x="1555" y="1107"/>
      <point x="1555" y="756"/>
      <point x="1551" y="698" type="curve"/>
      <point x="1016" y="698" type="line"/>
      <point x="1016" y="423" type="line" smooth="yes"/>
      <point x="1016" y="365"/>
      <point x="1023" y="282"/>
      <point x="1095" y="282" type="curve" smooth="yes"/>
      <point x="1177" y="282"/>
      <point x="1170" y="417"/>
      <point x="1170" y="490" type="curve" smooth="yes"/>
      <point x="1170" y="556"/>
      <point x="1170" y="576"/>
      <point x="1169" y="583" type="curve"/>
      <point x="1555" y="583" type="line"/>
      <point x="1555" y="493" type="line" smooth="yes"/>
      <point x="1555" y="151"/>
      <point x="1430" y="-18"/>
      <point x="1081" y="-18" type="curve" smooth="yes"/>
      <point x="981" y="-18"/>
      <point x="897" y="9"/>
      <point x="833" y="63" type="curve"/>
      <point x="756" y="7"/>
      <point x="665" y="-18"/>
      <point x="552" y="-18" type="curve" smooth="yes"/>
      <point x="251" y="-18"/>
      <point x="82" y="129"/>
      <point x="82" y="440" type="curve" smooth="yes"/>
      <point x="82" y="1057" type="line" smooth="yes"/>
      <point x="82" y="1339"/>
      <point x="271" y="1518"/>
      <point x="552" y="1518" type="curve" smooth="yes"/>
      <point x="652" y="1518"/>
      <point x="744" y="1490"/>
    </contour>
    <contour>
      <point x="630" y="1116" type="line"/>
      <point x="630" y="1187"/>
      <point x="598" y="1218"/>
      <point x="552" y="1218" type="curve" smooth="yes"/>
      <point x="508" y="1218"/>
      <point x="478" y="1187"/>
      <point x="478" y="1116" type="curve" smooth="yes"/>
      <point x="478" y="361" type="line" smooth="yes"/>
      <point x="478" y="316"/>
      <point x="502" y="282"/>
      <point x="552" y="282" type="curve" smooth="yes"/>
      <point x="602" y="282"/>
      <point x="630" y="316"/>
      <point x="630" y="361" type="curve" smooth="yes"/>
    </contour>
    <contour>
      <point x="1170" y="1091" type="line"/>
      <point x="1170" y="1183"/>
      <point x="1138" y="1229"/>
      <point x="1095" y="1229" type="curve" smooth="yes"/>
      <point x="1015" y="1229"/>
      <point x="1014" y="1129"/>
      <point x="1014" y="1055" type="curve" smooth="yes"/>
      <point x="1014" y="1019"/>
      <point x="1017" y="979"/>
      <point x="1017" y="940" type="curve"/>
      <point x="1170" y="940" type="line"/>
    </contour>
  </outline>
</glyph>
<glyph name="florin" format="1">
  <advance width="767"/>
  <unicode hex="0192"/>
  <outline>
    <contour>
      <point x="190" y="1539" type="line"/>
      <point x="190" y="1700"/>
      <point x="267" y="1779"/>
      <point x="441" y="1779" type="curve" smooth="yes"/>
      <point x="533" y="1779"/>
      <point x="602" y="1771"/>
      <point x="652" y="1752" type="curve"/>
      <point x="652" y="1516" type="line"/>
      <point x="639" y="1516"/>
      <point x="626" y="1517"/>
      <point x="620" y="1517" type="curve" smooth="yes"/>
      <point x="573" y="1517"/>
      <point x="570" y="1491"/>
      <point x="570" y="1446" type="curve" smooth="yes"/>
      <point x="570" y="1264" type="line"/>
      <point x="644" y="1264" type="line"/>
      <point x="644" y="964" type="line"/>
      <point x="570" y="964" type="line"/>
      <point x="570" y="221" type="line" smooth="yes"/>
      <point x="570" y="60"/>
      <point x="496" y="-21"/>
      <point x="330" y="-21" type="curve" smooth="yes"/>
      <point x="238" y="-21"/>
      <point x="166" y="-13"/>
      <point x="115" y="8" type="curve"/>
      <point x="115" y="244" type="line"/>
      <point x="132" y="240"/>
      <point x="146" y="238"/>
      <point x="155" y="238" type="curve" smooth="yes"/>
      <point x="194" y="238"/>
      <point x="190" y="271"/>
      <point x="190" y="305" type="curve" smooth="yes"/>
      <point x="190" y="964" type="line"/>
      <point x="107" y="964" type="line"/>
      <point x="107" y="1264" type="line"/>
      <point x="190" y="1264" type="line"/>
    </contour>
  </outline>
</glyph>
<glyph name="uni0237" format="1">
  <advance width="624"/>
  <unicode hex="0237"/>
  <outline>
    <contour>
      <point x="143" y="1500" type="line"/>
      <point x="526" y="1500" type="line"/>
      <point x="526" y="184" type="line" smooth="yes"/>
      <point x="526" y="-38"/>
      <point x="454" y="-182"/>
      <point x="221" y="-180" type="curve"/>
      <point x="143" y="-178"/>
      <point x="64" y="-171"/>
      <point x="35" y="-150" type="curve"/>
      <point x="35" y="108" type="line"/>
      <point x="43" y="108"/>
      <point x="49" y="108"/>
      <point x="52" y="107" type="curve" smooth="yes"/>
      <point x="120" y="108"/>
      <point x="143" y="137"/>
      <point x="143" y="174" type="curve" smooth="yes"/>
    </contour>
  </outline>
</glyph>
<glyph name="circumflex" format="1">
  <advance width="970"/>
  <unicode hex="02C6"/>
  <outline>
    <contour>
      <point x="264" y="2063" type="line"/>
      <point x="706" y="2063" type="line"/>
      <point x="964" y="1640" type="line"/>
      <point x="571" y="1640" type="line"/>
      <point x="485" y="1938" type="line"/>
      <point x="399" y="1640" type="line"/>
      <point x="5" y="1640" type="line"/>
    </contour>
  </outline>
</glyph>
<glyph name="caron" format="1">
  <advance width="970"/>
  <unicode hex="02C7"/>
  <outline>
    <contour>
      <point x="571" y="2066" type="line"/>
      <point x="964" y="2066" type="line"/>
      <point x="706" y="1640" type="line"/>
      <point x="264" y="1640" type="line"/>
      <point x="5" y="2066" type="line"/>
      <point x="399" y="2066" type="line"/>
      <point x="485" y="1765" type="line"/>
    </contour>
  </outline>
</glyph>
<glyph name="breve" format="1">
  <advance width="1016"/>
  <unicode hex="02D8"/>
  <outline>
    <contour>
      <point x="644" y="1964" type="curve"/>
      <point x="885" y="1964" type="line"/>
      <point x="885" y="1951" type="line" smooth="yes"/>
      <point x="885" y="1712"/>
      <point x="764" y="1611"/>
      <point x="508" y="1611" type="curve" smooth="yes"/>
      <point x="258" y="1611"/>
      <point x="133" y="1716"/>
      <point x="133" y="1949" type="curve" smooth="yes"/>
      <point x="133" y="1964" type="line"/>
      <point x="371" y="1964" type="line"/>
      <point x="371" y="1834"/>
      <point x="422" y="1816"/>
      <point x="510" y="1816" type="curve" smooth="yes"/>
      <point x="593" y="1816"/>
      <point x="644" y="1834"/>
    </contour>
  </outline>
</glyph>
<glyph name="ring" format="1">
  <advance width="923"/>
  <unicode hex="02DA"/>
  <outline>
    <contour>
      <point x="162" y="2222" type="curve" smooth="yes"/>
      <point x="162" y="2405"/>
      <point x="281" y="2520"/>
      <point x="461" y="2520" type="curve" smooth="yes"/>
      <point x="642" y="2520"/>
      <point x="760" y="2405"/>
      <point x="760" y="2222" type="curve" smooth="yes"/>
      <point x="760" y="2041"/>
      <point x="642" y="1926"/>
      <point x="461" y="1926" type="curve" smooth="yes"/>
      <point x="281" y="1926"/>
      <point x="162" y="2038"/>
    </contour>
    <contour>
      <point x="601" y="2225" type="curve" smooth="yes"/>
      <point x="601" y="2304"/>
      <point x="555" y="2383"/>
      <point x="464" y="2383" type="curve" smooth="yes"/>
      <point x="369" y="2383"/>
      <point x="321" y="2304"/>
      <point x="321" y="2225" type="curve" smooth="yes"/>
      <point x="321" y="2143"/>
      <point x="369" y="2064"/>
      <point x="464" y="2064" type="curve" smooth="yes"/>
      <point x="555" y="2064"/>
      <point x="601" y="2143"/>
    </contour>
  </outline>
</glyph>
<glyph name="ogonek" format="1">
  <advance width="1623"/>
  <unicode hex="02DB"/>
  <outline>
    <contour>
      <point x="1188" y="0" type="curve"/>
      <point x="1339" y="0" type="line"/>
      <point x="1274" y="-84"/>
      <point x="1199" y="-175"/>
      <point x="1199" y="-287" type="curve" smooth="yes"/>
      <point x="1199" y="-387"/>
      <point x="1280" y="-412"/>
      <point x="1357" y="-412" type="curve" smooth="yes"/>
      <point x="1372" y="-412"/>
      <point x="1393" y="-412"/>
      <point x="1420" y="-407" type="curve"/>
      <point x="1420" y="-591" type="line"/>
      <point x="1397" y="-604"/>
      <point x="1319" y="-626"/>
      <point x="1251" y="-626" type="curve" smooth="yes"/>
      <point x="1060" y="-626"/>
      <point x="936" y="-535"/>
      <point x="936" y="-354" type="curve" smooth="yes"/>
      <point x="936" y="-235"/>
      <point x="1011" y="-97"/>
    </contour>
  </outline>
</glyph>
<glyph name="tilde" format="1">
  <advance width="1117"/>
  <unicode hex="02DC"/>
  <outline>
    <contour>
      <point x="179" y="1953" type="line"/>
      <point x="218" y="2088"/>
      <point x="283" y="2183"/>
      <point x="395" y="2183" type="curve" smooth="yes"/>
      <point x="476" y="2183"/>
      <point x="646" y="2109"/>
      <point x="696" y="2109" type="curve" smooth="yes"/>
      <point x="700" y="2109" type="line"/>
      <point x="719" y="2112"/>
      <point x="735" y="2120"/>
      <point x="756" y="2180" type="curve"/>
      <point x="936" y="2152" type="line"/>
      <point x="927" y="2082" type="line"/>
      <point x="910" y="1937"/>
      <point x="838" y="1874"/>
      <point x="723" y="1874" type="curve" smooth="yes"/>
      <point x="635" y="1874"/>
      <point x="504" y="1956"/>
      <point x="421" y="1956" type="curve" smooth="yes"/>
      <point x="413" y="1956"/>
      <point x="405" y="1956"/>
      <point x="398" y="1954" type="curve" smooth="yes"/>
      <point x="376" y="1949"/>
      <point x="365" y="1930"/>
      <point x="347" y="1895" type="curve"/>
    </contour>
  </outline>
</glyph>
<glyph name="hungarumlaut" format="1">
  <advance width="1560"/>
  <unicode hex="02DD"/>
  <outline>
    <contour>
      <point x="883" y="1990" type="line"/>
      <point x="1134" y="2283" type="line"/>
      <point x="1391" y="2170" type="line"/>
      <point x="1038" y="1926" type="line"/>
    </contour>
    <contour>
      <point x="456" y="1990" type="line"/>
      <point x="653" y="2283" type="line"/>
      <point x="904" y="2166" type="line"/>
      <point x="615" y="1925" type="line"/>
    </contour>
  </outline>
</glyph>
<glyph name="uni0307" format="1">
  <advance width="572"/>
  <unicode hex="0307"/>
  <outline>
    <contour>
      <point x="-53" y="2305" type="line"/>
      <point x="605" y="2305" type="line"/>
      <point x="605" y="1949" type="line"/>
      <point x="-53" y="1949" type="line"/>
    </contour>
  </outline>
</glyph>
<glyph name="dblgravecmb" format="1">
  <advance width="825"/>
  <unicode hex="030F"/>
  <outline>
    <contour>
      <point x="-107" y="2614" type="line"/>
      <point x="162" y="2767" type="line"/>
      <point x="386" y="2505" type="line"/>
      <point x="205" y="2446" type="line"/>
    </contour>
    <contour>
      <point x="342" y="2618" type="line"/>
      <point x="587" y="2767" type="line"/>
      <point x="774" y="2505" type="line"/>
      <point x="593" y="2446" type="line"/>
    </contour>
  </outline>
</glyph>
<glyph name="uni0311" format="1">
  <advance width="1016"/>
  <unicode hex="0311"/>
  <outline>
    <contour>
      <point x="132" y="1707" type="line"/>
      <point x="133" y="1946"/>
      <point x="255" y="2043"/>
      <point x="511" y="2043" type="curve" smooth="yes"/>
      <point x="761" y="2043"/>
      <point x="885" y="1939"/>
      <point x="887" y="1706" type="curve"/>
      <point x="887" y="1691" type="line"/>
      <point x="646" y="1692" type="line"/>
      <point x="645" y="1820"/>
      <point x="596" y="1839"/>
      <point x="508" y="1838" type="curve" smooth="yes"/>
      <point x="423" y="1837"/>
      <point x="372" y="1823"/>
      <point x="373" y="1690" type="curve"/>
      <point x="132" y="1694" type="line"/>
    </contour>
  </outline>
</glyph>
<glyph name="commaaccentcomb" format="1">
  <advance width="528"/>
  <unicode hex="0326"/>
  <outline>
    <contour>
      <point x="73" y="-241" type="line"/>
      <point x="424" y="-241" type="line"/>
      <point x="424" y="-567" type="line"/>
      <point x="318" y="-912" type="line"/>
      <point x="135" y="-912" type="line"/>
      <point x="202" y="-576" type="line"/>
      <point x="73" y="-576" type="line"/>
    </contour>
  </outline>
</glyph>
<glyph name="Delta" format="1">
  <advance width="885"/>
  <unicode hex="0394"/>
  <outline>
    <contour>
      <point x="165" y="539" type="line"/>
      <point x="759" y="539" type="line"/>
      <point x="915" y="0" type="line"/>
      <point x="-30" y="0" type="line"/>
    </contour>
    <contour>
      <point x="530" y="204" type="line"/>
      <point x="499" y="504" type="line"/>
      <point x="409" y="504" type="line"/>
      <point x="346" y="204" type="line"/>
    </contour>
  </outline>
</glyph>
<glyph name="mu" format="1">
  <advance width="1124"/>
  <unicode hex="03BC"/>
  <outline>
    <contour>
      <point x="625" y="1500" type="line"/>
      <point x="1005" y="1500" type="line"/>
      <point x="1005" y="0" type="line"/>
      <point x="622" y="0" type="line"/>
      <point x="622" y="162" type="line"/>
      <point x="571" y="44"/>
      <point x="528" y="-17"/>
      <point x="391" y="-17" type="curve" smooth="yes"/>
      <point x="425" y="-17"/>
      <point x="429" y="-19"/>
      <point x="461" y="-27" type="curve"/>
      <point x="461" y="-186" type="line"/>
      <point x="92" y="-186" type="line"/>
      <point x="92" y="1500" type="line"/>
      <point x="480" y="1500" type="line"/>
      <point x="480" y="473" type="line" smooth="yes"/>
      <point x="480" y="360"/>
      <point x="460" y="281"/>
      <point x="549" y="281" type="curve" smooth="yes"/>
      <point x="630" y="281"/>
      <point x="622" y="382"/>
      <point x="625" y="457" type="curve" smooth="yes"/>
    </contour>
  </outline>
</glyph>
<glyph name="endash" format="1">
  <advance width="756"/>
  <unicode hex="2013"/>
  <outline>
    <contour>
      <point x="120" y="741" type="line"/>
      <point x="636" y="741" type="line"/>
      <point x="636" y="427" type="line"/>
      <point x="120" y="427" type="line"/>
    </contour>
  </outline>
</glyph>
<glyph name="emdash" format="1">
  <advance width="1153"/>
  <unicode hex="2014"/>
  <outline>
    <contour>
      <point x="60" y="741" type="line"/>
      <point x="1092" y="741" type="line"/>
      <point x="1092" y="387" type="line"/>
      <point x="60" y="387" type="line"/>
    </contour>
  </outline>
</glyph>
<glyph name="quoteleft" format="1">
  <advance width="576"/>
  <unicode hex="2018"/>
  <outline>
    <contour>
      <point x="229" y="1805" type="line"/>
      <point x="430" y="1805" type="line"/>
      <point x="335" y="1361" type="line"/>
      <point x="498" y="1361" type="line"/>
      <point x="498" y="1001" type="line"/>
      <point x="69" y="1001" type="line"/>
      <point x="69" y="1352" type="line"/>
    </contour>
  </outline>
</glyph>
<glyph name="quoteright" format="1">
  <advance width="576"/>
  <unicode hex="2019"/>
  <outline>
    <contour>
      <point x="67" y="1805" type="line"/>
      <point x="496" y="1805" type="line"/>
      <point x="496" y="1451" type="line"/>
      <point x="338" y="1001" type="line"/>
      <point x="134" y="1001" type="line"/>
      <point x="232" y="1442" type="line"/>
      <point x="67" y="1442" type="line"/>
    </contour>
  </outline>
</glyph>
<glyph name="quotesinglbase" format="1">
  <advance width="484"/>
  <unicode hex="201A"/>
  <outline>
    <contour>
      <point x="46" y="310" type="line"/>
      <point x="435" y="310" type="line"/>
      <point x="435" y="9" type="line"/>
      <point x="336" y="-208" type="line"/>
      <point x="110" y="-208" type="line"/>
      <point x="172" y="0" type="line"/>
      <point x="46" y="0" type="line"/>
    </contour>
  </outline>
</glyph>
<glyph name="quotedblleft" format="1">
  <advance width="1030"/>
  <unicode hex="201C"/>
  <outline>
    <contour>
      <point x="688" y="1805" type="line"/>
      <point x="916" y="1805" type="line"/>
      <point x="854" y="1491" type="line"/>
      <point x="977" y="1491" type="line"/>
      <point x="977" y="1171" type="line"/>
      <point x="588" y="1171" type="line"/>
      <point x="588" y="1482" type="line"/>
    </contour>
    <contour>
      <point x="204" y="1805" type="line"/>
      <point x="430" y="1805" type="line"/>
      <point x="368" y="1491" type="line"/>
      <point x="491" y="1491" type="line"/>
      <point x="491" y="1171" type="line"/>
      <point x="102" y="1171" type="line"/>
      <point x="102" y="1482" type="line"/>
    </contour>
  </outline>
</glyph>
<glyph name="quotedblright" format="1">
  <advance width="1077"/>
  <unicode hex="201D"/>
  <outline>
    <contour>
      <point x="603" y="1805" type="line"/>
      <point x="992" y="1805" type="line"/>
      <point x="992" y="1494" type="line"/>
      <point x="892" y="1171" type="line"/>
      <point x="666" y="1171" type="line"/>
      <point x="728" y="1485" type="line"/>
      <point x="603" y="1485" type="line"/>
    </contour>
    <contour>
      <point x="119" y="1805" type="line"/>
      <point x="508" y="1805" type="line"/>
      <point x="508" y="1494" type="line"/>
      <point x="406" y="1171" type="line"/>
      <point x="180" y="1171" type="line"/>
      <point x="242" y="1485" type="line"/>
      <point x="119" y="1485" type="line"/>
    </contour>
  </outline>
</glyph>
<glyph name="quotedblbase" format="1">
  <advance width="1016"/>
  <unicode hex="201E"/>
  <outline>
    <contour>
      <point x="607" y="317" type="line"/>
      <point x="993" y="317" type="line"/>
      <point x="993" y="6" type="line"/>
      <point x="894" y="-317" type="line"/>
      <point x="668" y="-317" type="line"/>
      <point x="730" y="0" type="line"/>
      <point x="607" y="0" type="line"/>
    </contour>
    <contour>
      <point x="121" y="317" type="line"/>
      <point x="507" y="317" type="line"/>
      <point x="507" y="6" type="line"/>
      <point x="410" y="-317" type="line"/>
      <point x="182" y="-317" type="line"/>
      <point x="244" y="0" type="line"/>
      <point x="121" y="0" type="line"/>
    </contour>
  </outline>
</glyph>
<glyph name="dagger" format="1">
  <advance width="909"/>
  <unicode hex="2020"/>
  <outline>
    <contour>
      <point x="259" y="1592" type="line"/>
      <point x="653" y="1592" type="line"/>
      <point x="653" y="1182" type="line"/>
      <point x="818" y="1182" type="line"/>
      <point x="818" y="861" type="line"/>
      <point x="653" y="861" type="line"/>
      <point x="653" y="0" type="line"/>
      <point x="259" y="0" type="line"/>
      <point x="259" y="861" type="line"/>
      <point x="91" y="861" type="line"/>
      <point x="91" y="1182" type="line"/>
      <point x="259" y="1182" type="line"/>
    </contour>
  </outline>
</glyph>
<glyph name="daggerdbl" format="1">
  <advance width="873"/>
  <unicode hex="2021"/>
  <outline>
    <contour>
      <point x="259" y="1592" type="line"/>
      <point x="653" y="1592" type="line"/>
      <point x="653" y="1182" type="line"/>
      <point x="818" y="1182" type="line"/>
      <point x="818" y="861" type="line"/>
      <point x="653" y="861" type="line"/>
      <point x="653" y="655" type="line"/>
      <point x="818" y="655" type="line"/>
      <point x="818" y="334" type="line"/>
      <point x="653" y="334" type="line"/>
      <point x="653" y="0" type="line"/>
      <point x="259" y="0" type="line"/>
      <point x="259" y="334" type="line"/>
      <point x="91" y="334" type="line"/>
      <point x="91" y="655" type="line"/>
      <point x="259" y="655" type="line"/>
      <point x="259" y="861" type="line"/>
      <point x="91" y="861" type="line"/>
      <point x="91" y="1182" type="line"/>
      <point x="259" y="1182" type="line"/>
    </contour>
  </outline>
</glyph>
<glyph name="bullet" format="1">
  <advance width="861"/>
  <unicode hex="2022"/>
  <outline>
    <contour>
      <point x="101" y="741" type="curve" smooth="yes"/>
      <point x="101" y="951"/>
      <point x="221" y="1095"/>
      <point x="430" y="1095" type="curve" smooth="yes"/>
      <point x="637" y="1095"/>
      <point x="760" y="951"/>
      <point x="760" y="741" type="curve" smooth="yes"/>
      <point x="760" y="531"/>
      <point x="637" y="387"/>
      <point x="430" y="387" type="curve" smooth="yes"/>
      <point x="221" y="387"/>
      <point x="101" y="531"/>
    </contour>
  </outline>
</glyph>
<glyph name="perthousand" format="1">
  <advance width="3237"/>
  <unicode hex="2030"/>
  <outline>
    <contour>
      <point x="1321" y="1763" type="line"/>
      <point x="1591" y="1763" type="line"/>
      <point x="963" y="0" type="line"/>
      <point x="682" y="0" type="line"/>
    </contour>
    <contour>
      <point x="558" y="1427" type="line"/>
      <point x="558" y="1491"/>
      <point x="546" y="1540"/>
      <point x="472" y="1540" type="curve" smooth="yes"/>
      <point x="398" y="1540"/>
      <point x="386" y="1490"/>
      <point x="386" y="1427" type="curve" smooth="yes"/>
      <point x="386" y="943" type="line" smooth="yes"/>
      <point x="386" y="879"/>
      <point x="405" y="820"/>
      <point x="472" y="820" type="curve" smooth="yes"/>
      <point x="539" y="820"/>
      <point x="558" y="879"/>
      <point x="558" y="943" type="curve" smooth="yes"/>
    </contour>
    <contour>
      <point x="78" y="1361" type="line"/>
      <point x="78" y="1624"/>
      <point x="203" y="1779"/>
      <point x="472" y="1779" type="curve" smooth="yes"/>
      <point x="739" y="1779"/>
      <point x="864" y="1624"/>
      <point x="864" y="1361" type="curve" smooth="yes"/>
      <point x="864" y="997" type="line" smooth="yes"/>
      <point x="864" y="755"/>
      <point x="724" y="578"/>
      <point x="472" y="578" type="curve" smooth="yes"/>
      <point x="221" y="578"/>
      <point x="78" y="755"/>
      <point x="78" y="997" type="curve" smooth="yes"/>
    </contour>
    <contour>
      <point x="1884" y="826" type="line"/>
      <point x="1884" y="890"/>
      <point x="1872" y="939"/>
      <point x="1798" y="939" type="curve" smooth="yes"/>
      <point x="1724" y="939"/>
      <point x="1712" y="889"/>
      <point x="1712" y="826" type="curve" smooth="yes"/>
      <point x="1712" y="342" type="line" smooth="yes"/>
      <point x="1712" y="278"/>
      <point x="1731" y="219"/>
      <point x="1798" y="219" type="curve" smooth="yes"/>
      <point x="1865" y="219"/>
      <point x="1884" y="278"/>
      <point x="1884" y="342" type="curve" smooth="yes"/>
    </contour>
    <contour>
      <point x="1404" y="760" type="line"/>
      <point x="1404" y="1023"/>
      <point x="1529" y="1178"/>
      <point x="1798" y="1178" type="curve" smooth="yes"/>
      <point x="2065" y="1178"/>
      <point x="2190" y="1023"/>
      <point x="2190" y="760" type="curve" smooth="yes"/>
      <point x="2190" y="396" type="line" smooth="yes"/>
      <point x="2190" y="154"/>
      <point x="2050" y="-23"/>
      <point x="1798" y="-23" type="curve" smooth="yes"/>
      <point x="1544" y="-23"/>
      <point x="1404" y="154"/>
      <point x="1404" y="396" type="curve" smooth="yes"/>
    </contour>
    <contour>
      <point x="2373" y="760" type="line"/>
      <point x="2373" y="1023"/>
      <point x="2498" y="1178"/>
      <point x="2765" y="1178" type="curve" smooth="yes"/>
      <point x="3037" y="1178"/>
      <point x="3162" y="1023"/>
      <point x="3162" y="760" type="curve" smooth="yes"/>
      <point x="3162" y="396" type="line" smooth="yes"/>
      <point x="3162" y="154"/>
      <point x="3019" y="-23"/>
      <point x="2765" y="-23" type="curve" smooth="yes"/>
      <point x="2516" y="-23"/>
      <point x="2373" y="154"/>
      <point x="2373" y="396" type="curve" smooth="yes"/>
    </contour>
    <contour>
      <point x="2854" y="826" type="line"/>
      <point x="2854" y="890"/>
      <point x="2839" y="939"/>
      <point x="2765" y="939" type="curve" smooth="yes"/>
      <point x="2691" y="939"/>
      <point x="2679" y="889"/>
      <point x="2679" y="826" type="curve" smooth="yes"/>
      <point x="2679" y="342" type="line" smooth="yes"/>
      <point x="2679" y="278"/>
      <point x="2701" y="219"/>
      <point x="2765" y="219" type="curve" smooth="yes"/>
      <point x="2832" y="219"/>
      <point x="2854" y="278"/>
      <point x="2854" y="342" type="curve" smooth="yes"/>
    </contour>
  </outline>
</glyph>
<glyph name="guilsinglleft" format="1">
  <advance width="606"/>
  <unicode hex="2039"/>
  <outline>
    <contour>
      <point x="31" y="983" type="line"/>
      <point x="548" y="1254" type="line"/>
      <point x="548" y="864" type="line"/>
      <point x="236" y="749" type="line"/>
      <point x="548" y="625" type="line"/>
      <point x="548" y="237" type="line"/>
      <point x="31" y="522" type="line"/>
    </contour>
  </outline>
</glyph>
<glyph name="guilsinglright" format="1">
  <advance width="727"/>
  <unicode hex="203A"/>
  <outline>
    <contour>
      <point x="111" y="864" type="line"/>
      <point x="111" y="1254" type="line"/>
      <point x="628" y="983" type="line"/>
      <point x="628" y="522" type="line"/>
      <point x="111" y="237" type="line"/>
      <point x="111" y="625" type="line"/>
      <point x="423" y="749" type="line"/>
    </contour>
  </outline>
</glyph>
<glyph name="fraction" format="1">
  <advance width="829"/>
  <unicode hex="2044"/>
  <outline>
    <contour>
      <point x="516" y="1765" type="line"/>
      <point x="820" y="1765" type="line"/>
      <point x="322" y="0" type="line"/>
      <point x="19" y="0" type="line"/>
    </contour>
  </outline>
</glyph>
<glyph name="uni2074" format="1">
  <advance width="846"/>
  <unicode hex="2074"/>
  <outline>
    <contour>
      <point x="301" y="1763" type="line"/>
      <point x="748" y="1763" type="line"/>
      <point x="748" y="1052" type="line"/>
      <point x="786" y="1052" type="line"/>
      <point x="786" y="829" type="line"/>
      <point x="748" y="829" type="line"/>
      <point x="748" y="659" type="line"/>
      <point x="465" y="659" type="line"/>
      <point x="465" y="829" type="line"/>
      <point x="74" y="829" type="line"/>
      <point x="74" y="1022" type="line"/>
    </contour>
    <contour>
      <point x="465" y="1052" type="line"/>
      <point x="465" y="1507" type="line"/>
      <point x="334" y="1052" type="line"/>
    </contour>
  </outline>
</glyph>
<glyph name="Euro" format="1">
  <advance width="1076"/>
  <unicode hex="20AC"/>
  <outline>
    <contour>
      <point x="23" y="1094" type="line"/>
      <point x="608" y="1094" type="line"/>
      <point x="608" y="966" type="line"/>
      <point x="404" y="966" type="line"/>
      <point x="404" y="869" type="line"/>
      <point x="608" y="869" type="line"/>
      <point x="608" y="733" type="line"/>
      <point x="23" y="733" type="line"/>
      <point x="23" y="869" type="line"/>
      <point x="164" y="869" type="line"/>
      <point x="164" y="966" type="line"/>
      <point x="23" y="966" type="line"/>
    </contour>
    <component base="C"/>
  </outline>
</glyph>
<glyph name="trademark" format="1">
  <advance width="1954"/>
  <unicode hex="2122"/>
  <outline>
    <contour>
      <point x="1407" y="1763" type="line"/>
      <point x="1857" y="1763" type="line"/>
      <point x="1857" y="571" type="line"/>
      <point x="1573" y="571" type="line"/>
      <point x="1573" y="988" type="line"/>
      <point x="1570" y="1413" type="line"/>
      <point x="1439" y="571" type="line"/>
      <point x="1182" y="571" type="line"/>
      <point x="1041" y="1413" type="line"/>
      <point x="1038" y="988" type="line"/>
      <point x="1038" y="571" type="line"/>
      <point x="760" y="571" type="line"/>
      <point x="760" y="1763" type="line"/>
      <point x="1207" y="1763" type="line"/>
      <point x="1307" y="1217" type="line"/>
    </contour>
    <contour>
      <point x="40" y="1763" type="line"/>
      <point x="654" y="1763" type="line"/>
      <point x="654" y="1508" type="line"/>
      <point x="491" y="1508" type="line"/>
      <point x="491" y="571" type="line"/>
      <point x="201" y="571" type="line"/>
      <point x="201" y="1508" type="line"/>
      <point x="40" y="1508" type="line"/>
    </contour>
  </outline>
</glyph>
<glyph name="product" format="1">
  <advance width="1137"/>
  <unicode hex="220F"/>
  <outline>
    <contour>
      <point x="116" y="1763" type="line"/>
      <point x="1018" y="1763" type="line"/>
      <point x="1018" y="0" type="line"/>
      <point x="640" y="0" type="line"/>
      <point x="640" y="1433" type="line"/>
      <point x="497" y="1433" type="line"/>
      <point x="497" y="0" type="line"/>
      <point x="116" y="0" type="line"/>
    </contour>
  </outline>
</glyph>
<glyph name="summation" format="1">
  <advance width="1010"/>
  <unicode hex="2211"/>
  <outline>
    <contour>
      <point x="110" y="1761" type="line"/>
      <point x="807" y="1761" type="line"/>
      <point x="807" y="1491" type="line"/>
      <point x="461" y="1491" type="line"/>
      <point x="762" y="880" type="line"/>
      <point x="461" y="305" type="line"/>
      <point x="807" y="305" type="line"/>
      <point x="807" y="0" type="line"/>
      <point x="110" y="0" type="line"/>
      <point x="110" y="301" type="line"/>
      <point x="445" y="881" type="line"/>
      <point x="110" y="1495" type="line"/>
    </contour>
  </outline>
</glyph>
<glyph name="uni2215" format="1">
  <advance width="829"/>
  <unicode hex="2215"/>
  <outline>
    <contour>
      <point x="516" y="1765" type="line"/>
      <point x="820" y="1765" type="line"/>
      <point x="322" y="0" type="line"/>
      <point x="19" y="0" type="line"/>
    </contour>
  </outline>
</glyph>
<glyph name="radical" format="1">
  <advance width="1635"/>
  <unicode hex="221A"/>
  <outline>
    <contour>
      <point x="688" y="980" type="line"/>
      <point x="1418" y="980" type="line"/>
      <point x="1418" y="662" type="line"/>
      <point x="964" y="662" type="line"/>
      <point x="778" y="0" type="line"/>
      <point x="228" y="0" type="line"/>
      <point x="165" y="741" type="line"/>
      <point x="544" y="741" type="line"/>
      <point x="510" y="348" type="line"/>
    </contour>
  </outline>
</glyph>
<glyph name="infinity" format="1">
  <advance width="1300"/>
  <unicode hex="221E"/>
  <outline>
    <contour>
      <point x="639" y="885" type="curve"/>
      <point x="739" y="1009"/>
      <point x="794" y="1041"/>
      <point x="912" y="1041" type="curve" smooth="yes"/>
      <point x="1116" y="1041"/>
      <point x="1182" y="937"/>
      <point x="1182" y="744" type="curve" smooth="yes"/>
      <point x="1182" y="555"/>
      <point x="1122" y="439"/>
      <point x="912" y="439" type="curve" smooth="yes"/>
      <point x="727" y="439"/>
      <point x="672" y="542"/>
      <point x="639" y="585" type="curve"/>
      <point x="613" y="556"/>
      <point x="526" y="452"/>
      <point x="370" y="452" type="curve" smooth="yes"/>
      <point x="162" y="452"/>
      <point x="108" y="554"/>
      <point x="108" y="744" type="curve" smooth="yes"/>
      <point x="108" y="932"/>
      <point x="174" y="1028"/>
      <point x="370" y="1028" type="curve" smooth="yes"/>
      <point x="487" y="1028"/>
      <point x="538" y="998"/>
    </contour>
    <contour>
      <point x="555" y="740" type="curve"/>
      <point x="519" y="709"/>
      <point x="545" y="662"/>
      <point x="551" y="662" type="curve" smooth="yes"/>
      <point x="510" y="662"/>
      <point x="510" y="709"/>
      <point x="510" y="740" type="curve" smooth="yes"/>
      <point x="510" y="775"/>
      <point x="510" y="819"/>
      <point x="551" y="819" type="curve" smooth="yes"/>
      <point x="546" y="819"/>
      <point x="520" y="775"/>
    </contour>
    <contour>
      <point x="782" y="740" type="curve" smooth="yes"/>
      <point x="782" y="705"/>
      <point x="782" y="661"/>
      <point x="739" y="661" type="curve" smooth="yes"/>
      <point x="738" y="661"/>
      <point x="768" y="705"/>
      <point x="731" y="740" type="curve"/>
      <point x="764" y="775"/>
      <point x="737" y="819"/>
      <point x="739" y="819" type="curve" smooth="yes"/>
      <point x="782" y="819"/>
      <point x="782" y="775"/>
    </contour>
  </outline>
</glyph>
<glyph name="approxequal" format="1">
  <advance width="1117"/>
  <unicode hex="2248"/>
  <outline>
    <contour>
      <point x="734" y="1119" type="curve"/>
      <point x="726" y="1120"/>
      <point x="781" y="1134"/>
      <point x="807" y="1225" type="curve"/>
      <point x="1040" y="1183" type="line"/>
      <point x="1045" y="1209"/>
      <point x="914" y="761"/>
      <point x="769" y="761" type="curve" smooth="yes"/>
      <point x="655" y="761"/>
      <point x="496" y="892"/>
      <point x="390" y="892" type="curve" smooth="yes"/>
      <point x="343" y="892"/>
      <point x="325" y="871"/>
      <point x="295" y="799" type="curve"/>
      <point x="77" y="886" type="line"/>
      <point x="128" y="1101"/>
      <point x="211" y="1237"/>
      <point x="358" y="1237" type="curve" smooth="yes"/>
      <point x="462" y="1237"/>
      <point x="670" y="1119"/>
    </contour>
    <contour>
      <point x="734" y="532" type="curve"/>
      <point x="726" y="533"/>
      <point x="781" y="547"/>
      <point x="807" y="638" type="curve"/>
      <point x="1040" y="596" type="line"/>
      <point x="1045" y="622"/>
      <point x="914" y="174"/>
      <point x="769" y="174" type="curve" smooth="yes"/>
      <point x="655" y="174"/>
      <point x="496" y="305"/>
      <point x="390" y="305" type="curve" smooth="yes"/>
      <point x="343" y="305"/>
      <point x="325" y="284"/>
      <point x="295" y="212" type="curve"/>
      <point x="77" y="299" type="line"/>
      <point x="128" y="516"/>
      <point x="211" y="650"/>
      <point x="358" y="650" type="curve" smooth="yes"/>
      <point x="462" y="650"/>
      <point x="670" y="532"/>
    </contour>
  </outline>
</glyph>
<glyph name="lessequal" format="1">
  <advance width="781"/>
  <unicode hex="2264"/>
  <outline>
    <contour>
      <point x="106" y="1085" type="line"/>
      <point x="674" y="1418" type="line"/>
      <point x="674" y="1033" type="line"/>
      <point x="351" y="855" type="line"/>
      <point x="674" y="682" type="line"/>
      <point x="674" y="294" type="line"/>
      <point x="106" y="631" type="line"/>
    </contour>
    <contour>
      <point x="132" y="249" type="line"/>
      <point x="642" y="249" type="line"/>
      <point x="642" y="0" type="line"/>
      <point x="132" y="0" type="line"/>
    </contour>
  </outline>
</glyph>
<glyph name="greaterequal" format="1">
  <advance width="781"/>
  <unicode hex="2265"/>
  <outline>
    <contour>
      <point x="115" y="1033" type="line"/>
      <point x="115" y="1418" type="line"/>
      <point x="683" y="1085" type="line"/>
      <point x="683" y="631" type="line"/>
      <point x="115" y="294" type="line"/>
      <point x="115" y="682" type="line"/>
      <point x="437" y="855" type="line"/>
    </contour>
    <contour>
      <point x="144" y="249" type="line"/>
      <point x="657" y="249" type="line"/>
      <point x="657" y="0" type="line"/>
      <point x="144" y="0" type="line"/>
    </contour>
  </outline>
</glyph>
<glyph name="lozenge" format="1">
  <advance width="921"/>
  <unicode hex="25CA"/>
  <outline>
    <contour>
      <point x="177" y="788" type="line"/>
      <point x="768" y="788" type="line"/>
      <point x="967" y="373" type="line"/>
      <point x="768" y="0" type="line"/>
      <point x="177" y="0" type="line"/>
      <point x="-46" y="373" type="line"/>
    </contour>
    <contour>
      <point x="529" y="373" type="line"/>
      <point x="475" y="599" type="line"/>
      <point x="443" y="599" type="line"/>
      <point x="389" y="373" type="line"/>
      <point x="443" y="179" type="line"/>
      <point x="475" y="179" type="line"/>
    </contour>
  </outline>
</glyph>
<glyph name="uniFB01" format="1">
  <advance width="1261"/>
  <unicode hex="FB01"/>
  <outline>
    <contour>
      <point x="122" y="1628" type="line"/>
      <point x="122" y="1786"/>
      <point x="250" y="1881"/>
      <point x="411" y="1881" type="curve" smooth="yes"/>
      <point x="499" y="1881"/>
      <point x="572" y="1862"/>
      <point x="608" y="1848" type="curve"/>
      <point x="608" y="1636" type="line"/>
      <point x="596" y="1637"/>
      <point x="584" y="1636"/>
      <point x="570" y="1636" type="curve" smooth="yes"/>
      <point x="546" y="1636"/>
      <point x="504" y="1632"/>
      <point x="504" y="1588" type="curve" smooth="yes"/>
      <point x="504" y="1500" type="line"/>
      <point x="1158" y="1500" type="line"/>
      <point x="1158" y="0" type="line"/>
      <point x="773" y="0" type="line"/>
      <point x="773" y="1229" type="line"/>
      <point x="504" y="1229" type="line"/>
      <point x="504" y="0" type="line"/>
      <point x="119" y="0" type="line"/>
      <point x="119" y="1229" type="line"/>
      <point x="29" y="1229" type="line"/>
      <point x="29" y="1500" type="line"/>
      <point x="122" y="1500" type="line"/>
    </contour>
    <contour>
      <point x="773" y="1800" type="line"/>
      <point x="1158" y="1800" type="line"/>
      <point x="1158" y="1599" type="line"/>
      <point x="773" y="1599" type="line"/>
    </contour>
  </outline>
</glyph>
<glyph name="uniFB02" format="1">
  <advance width="1265"/>
  <unicode hex="FB02"/>
  <outline>
    <contour>
      <point x="122" y="1527" type="line"/>
      <point x="122" y="1635"/>
      <point x="-113" y="1802"/>
      <point x="393" y="1802" type="curve" smooth="yes"/>
      <point x="601" y="1802"/>
      <point x="1019" y="1761"/>
      <point x="1156" y="1761" type="curve"/>
      <point x="1156" y="0" type="line"/>
      <point x="774" y="0" type="line"/>
      <point x="774" y="1535" type="line"/>
      <point x="638" y="1567"/>
      <point x="558" y="1582"/>
      <point x="516" y="1582" type="curve" smooth="yes"/>
      <point x="342" y="1582"/>
      <point x="504" y="1456"/>
      <point x="504" y="1487" type="curve" smooth="yes"/>
      <point x="504" y="1439" type="line"/>
      <point x="608" y="1439" type="line"/>
      <point x="608" y="1168" type="line"/>
      <point x="504" y="1168" type="line"/>
      <point x="504" y="0" type="line"/>
      <point x="119" y="0" type="line"/>
      <point x="119" y="1168" type="line"/>
      <point x="29" y="1168" type="line"/>
      <point x="29" y="1439" type="line"/>
      <point x="122" y="1439" type="line"/>
    </contour>
  </outline>
</glyph>
<glyph name="uniFB03" format="1">
  <advance width="1926"/>
  <unicode hex="FB03"/>
  <outline>
    <contour>
      <point x="787" y="1619" type="line"/>
      <point x="787" y="1777"/>
      <point x="915" y="1872"/>
      <point x="1076" y="1872" type="curve" smooth="yes"/>
      <point x="1164" y="1872"/>
      <point x="1237" y="1853"/>
      <point x="1273" y="1839" type="curve"/>
      <point x="1273" y="1627" type="line"/>
      <point x="1261" y="1628"/>
      <point x="1249" y="1627"/>
      <point x="1235" y="1627" type="curve" smooth="yes"/>
      <point x="1211" y="1627"/>
      <point x="1169" y="1623"/>
      <point x="1169" y="1579" type="curve" smooth="yes"/>
      <point x="1169" y="1500" type="line"/>
      <point x="1823" y="1500" type="line"/>
      <point x="1823" y="0" type="line"/>
      <point x="1438" y="0" type="line"/>
      <point x="1438" y="1229" type="line"/>
      <point x="1169" y="1229" type="line"/>
      <point x="1169" y="0" type="line"/>
      <point x="784" y="0" type="line"/>
      <point x="784" y="1229" type="line"/>
      <point x="504" y="1229" type="line"/>
      <point x="504" y="0" type="line"/>
      <point x="119" y="0" type="line"/>
      <point x="119" y="1229" type="line"/>
      <point x="29" y="1229" type="line"/>
      <point x="29" y="1500" type="line"/>
      <point x="122" y="1500" type="line"/>
      <point x="122" y="1619" type="line" smooth="yes"/>
      <point x="122" y="1777"/>
      <point x="250" y="1872"/>
      <point x="411" y="1872" type="curve" smooth="yes"/>
      <point x="499" y="1872"/>
      <point x="572" y="1853"/>
      <point x="608" y="1839" type="curve"/>
      <point x="608" y="1627" type="line"/>
      <point x="596" y="1628"/>
      <point x="584" y="1627"/>
      <point x="570" y="1627" type="curve" smooth="yes"/>
      <point x="546" y="1627"/>
      <point x="504" y="1623"/>
      <point x="504" y="1579" type="curve" smooth="yes"/>
      <point x="504" y="1500" type="line"/>
      <point x="787" y="1500" type="line"/>
    </contour>
    <contour>
      <point x="1438" y="1800" type="line"/>
      <point x="1823" y="1800" type="line"/>
      <point x="1823" y="1599" type="line"/>
      <point x="1438" y="1599" type="line"/>
    </contour>
  </outline>
</glyph>
<glyph name="uniFB04" format="1">
  <advance width="1930"/>
  <unicode hex="FB04"/>
  <outline>
    <contour>
      <point x="787" y="1527" type="line"/>
      <point x="787" y="1635"/>
      <point x="552" y="1802"/>
      <point x="1058" y="1802" type="curve" smooth="yes"/>
      <point x="1266" y="1802"/>
      <point x="1684" y="1761"/>
      <point x="1821" y="1761" type="curve"/>
      <point x="1821" y="0" type="line"/>
      <point x="1439" y="0" type="line"/>
      <point x="1439" y="1535" type="line"/>
      <point x="1303" y="1567"/>
      <point x="1223" y="1582"/>
      <point x="1181" y="1582" type="curve" smooth="yes"/>
      <point x="1007" y="1582"/>
      <point x="1169" y="1456"/>
      <point x="1169" y="1487" type="curve" smooth="yes"/>
      <point x="1169" y="1439" type="line"/>
      <point x="1273" y="1439" type="line"/>
      <point x="1273" y="1168" type="line"/>
      <point x="1169" y="1168" type="line"/>
      <point x="1169" y="0" type="line"/>
      <point x="784" y="0" type="line"/>
      <point x="784" y="1168" type="line"/>
      <point x="504" y="1168" type="line"/>
      <point x="504" y="0" type="line"/>
      <point x="119" y="0" type="line"/>
      <point x="119" y="1168" type="line"/>
      <point x="29" y="1168" type="line"/>
      <point x="29" y="1439" type="line"/>
      <point x="122" y="1439" type="line"/>
      <point x="122" y="1527" type="line" smooth="yes"/>
      <point x="122" y="1685"/>
      <point x="250" y="1780"/>
      <point x="411" y="1780" type="curve" smooth="yes"/>
      <point x="499" y="1780"/>
      <point x="572" y="1761"/>
      <point x="608" y="1747" type="curve"/>
      <point x="608" y="1535" type="line"/>
      <point x="596" y="1536"/>
      <point x="584" y="1535"/>
      <point x="570" y="1535" type="curve" smooth="yes"/>
      <point x="546" y="1535"/>
      <point x="504" y="1531"/>
      <point x="504" y="1487" type="curve" smooth="yes"/>
      <point x="504" y="1439" type="line"/>
      <point x="787" y="1439" type="line"/>
    </contour>
  </outline>
</glyph>
